<?xml version="1.0" encoding="UTF-8"?>
<!DOCTYPE svg PUBLIC "-//W3C//DTD SVG 1.1//EN" "http://www.w3.org/Graphics/SVG/1.1/DTD/svg11.dtd">
<!-- Creator: CorelDRAW -->
<svg xmlns="http://www.w3.org/2000/svg" xml:space="preserve" width="279.4mm" height="279.4mm" version="1.1" style="shape-rendering:geometricPrecision; text-rendering:geometricPrecision; image-rendering:optimizeQuality; fill-rule:evenodd; clip-rule:evenodd"
viewBox="0 0 27940 27940"
 xmlns:xlink="http://www.w3.org/1999/xlink"
 xmlns:xodm="http://www.corel.com/coreldraw/odm/2003">
 <defs>
  <style type="text/css">
   <![CDATA[
    .fil5 {fill:#0C160D}
    .fil0 {fill:#0D140C}
    .fil1 {fill:#153319}
    .fil3 {fill:#173F1C}
    .fil6 {fill:#6F7770}
    .fil7 {fill:#80837F}
    .fil2 {fill:url(#id0)}
    .fil4 {fill:url(#id1)}
   ]]>
  </style>
  <linearGradient id="id0" gradientUnits="userSpaceOnUse" x1="18206.65" y1="21355.82" x2="18206.65" y2="9730.81">
   <stop offset="0" style="stop-opacity:1; stop-color:#BD7F2A"/>
   <stop offset="1" style="stop-opacity:1; stop-color:#FFD85F"/>
  </linearGradient>
  <linearGradient id="id1" gradientUnits="userSpaceOnUse" x1="9297.4" y1="4692.08" x2="11971.58" y2="4692.08">
   <stop offset="0" style="stop-opacity:1; stop-color:#0F1B11"/>
   <stop offset="1" style="stop-opacity:1; stop-color:#173F1D"/>
  </linearGradient>
 </defs>
 <g id="Layer_x0020_1">
  <metadata id="CorelCorpID_0Corel-Layer"/>
  <g id="_2827458260256">
   <path class="fil0" d="M9370.59 18774.9c0,-467.66 0,-935.33 0,-1403 0,-467.67 -5.63,-920.25 -5.63,-1395.46l0 -2104.5c0,-248.92 -11.26,-452.58 -11.26,-701.5 0,-1878.22 -11.26,-3733.8 -11.26,-5619.56 -45.04,15.09 -320.9,316.81 -377.2,369.61 -22.52,22.63 -45.04,37.71 -61.93,60.34 -33.78,37.72 -22.52,45.26 -22.52,105.61 0,331.89 0,663.78 0,995.68 0,331.89 11.26,648.7 11.26,988.13 0,2979.5 28.15,5966.54 28.15,8953.57 0,37.72 0,75.43 0,113.15 0,67.89 5.63,67.89 -28.15,105.6l-608.03 633.62c-197.04,196.11 -427.87,429.95 -608.02,641.15l-495.43 512.93c-33.78,30.17 -106.97,82.97 -118.23,128.23l501.06 0c73.19,0 112.6,-7.54 163.27,-7.54 174.52,-7.55 152,37.71 264.6,-75.43l337.79 -339.44c56.3,-60.34 106.97,-113.15 168.9,-173.49l163.26 -173.49c56.3,-60.34 106.97,-113.14 168.9,-165.95 56.3,-60.34 101.34,-120.68 163.27,-181.03 56.3,-52.8 112.59,-105.6 168.89,-165.94 28.15,-30.18 50.67,-52.81 84.45,-82.98 28.15,-30.17 45.04,-60.34 78.82,-90.51l709.36 -724.13c118.23,-135.78 258.97,-248.92 382.83,-384.7 16.89,-22.63 16.89,-22.63 33.78,-45.26 118.23,-135.77 258.97,-256.46 377.2,-384.69 50.67,-60.35 118.23,-120.69 168.9,-173.49 61.93,-60.35 112.59,-113.15 174.52,-165.95 28.15,-30.17 39.41,-60.34 73.19,-90.51l258.97 -256.47c33.78,-30.17 45.04,-45.26 78.82,-82.97 22.52,-30.17 56.3,-60.34 84.45,-90.52 95.71,-98.06 202.68,-196.12 292.75,-301.72 11.26,-15.08 22.52,-22.63 39.41,-37.71l754.4 -776.93c33.78,-30.18 56.3,-60.35 90.08,-82.98 39.41,22.63 135.12,128.23 174.53,165.95l304.01 324.35c61.93,75.43 152.01,143.32 219.56,218.75 16.89,22.63 22.52,30.17 39.41,52.8l996.49 1033.39c56.3,60.35 112.59,113.15 174.52,173.49l1345.54 1403c61.93,75.44 152.01,143.32 219.56,218.75l1035.9 1078.66c56.3,75.43 112.6,120.68 174.52,181.03 61.93,60.34 112.6,120.69 174.53,181.03l168.9 181.03c129.48,150.86 90.07,105.61 230.82,105.61 236.45,0 461.65,-22.63 698.1,-22.63 -90.08,-135.78 -242.08,-226.29 -343.42,-362.07 -73.19,-90.52 -180.15,-181.03 -264.6,-264 -16.89,-22.63 -16.89,-30.18 -39.41,-52.81l-225.2 -226.29c-33.77,-30.17 -50.66,-60.34 -78.81,-90.51l-270.24 -279.1c-56.3,-60.34 -118.22,-113.14 -174.52,-173.48 -67.56,-67.89 -112.6,-120.69 -174.53,-188.58 -61.93,-60.34 -118.23,-113.15 -180.15,-173.49l-703.74 -731.67c-61.92,-60.35 -112.59,-120.69 -180.15,-181.04l-304.01 -316.8c-16.89,-15.09 -16.89,-22.63 -33.78,-45.26 -191.42,-196.12 -394.09,-384.7 -574.25,-588.36l-219.56 -226.29c-39.41,-30.17 -56.3,-60.34 -90.08,-98.06l-833.22 -852.36c-197.05,-218.75 -422.24,-422.41 -613.66,-641.16l-225.19 -226.29c-50.67,-45.26 -39.41,-52.8 -39.41,-143.31 0,-233.84 0,-467.67 0,-701.51 0,-128.23 11.26,-226.29 5.63,-346.98l0 -1078.65c0,-241.37 11.26,-452.58 11.26,-701.5 0,-957.96 16.89,-1893.3 11.26,-2851.26 0,-75.43 28.15,-286.64 5.63,-346.98 -11.26,-22.63 -22.52,-30.17 -39.41,-45.26 -22.52,-22.63 -28.15,-22.63 -50.67,-37.72 -33.78,-30.17 -61.93,-60.34 -95.71,-90.51 -67.55,-52.8 -129.48,-105.6 -197.04,-158.4 -202.68,-158.41 -388.46,-324.35 -585.51,-490.3 -33.77,-30.17 -61.92,-52.8 -95.7,-75.43l-191.42 -165.95c-33.78,-30.17 -67.56,-52.8 -101.34,-82.97l-1503.17 -1267.23c-28.15,-15.09 -22.52,-30.17 -56.3,-37.72l0 2602.35c0,67.89 11.26,105.6 11.26,165.95 5.63,693.95 0,1387.91 0,2089.41 0,218.75 -11.26,475.21 0,693.96 0,52.8 5.63,98.06 5.63,165.95l0 2609.89c0,120.68 11.26,211.2 11.26,339.43l0 1742.44c0,82.97 16.89,271.55 -16.89,324.35 -11.26,15.09 -28.15,37.72 -39.41,52.8 -33.78,45.26 -73.18,113.15 -118.22,143.32l-11.26 -1538.78c5.63,-407.32 16.89,-814.65 5.63,-1221.97l-11.26 -1380.37c0,-113.15 -11.26,-211.21 -11.26,-339.44l0 -1056.02c0,-113.15 -11.26,-211.21 -11.26,-331.89l0 -1048.49c0,-113.14 -5.63,-211.2 -5.63,-339.43l0 -1040.94c0,-128.23 -11.26,-218.75 -11.26,-339.44l0 -1048.48c0,-233.83 -11.26,-445.03 -11.26,-686.41 0,-233.83 0,-467.67 0,-701.5 -45.04,7.54 -67.56,60.34 -95.71,90.51l-292.75 309.27c-33.78,37.71 -16.89,128.23 -16.89,181.03l11.26 3756.43c0,535.55 5.63,1040.93 5.63,1576.49l11.26 4752.11c0,218.74 33.78,573.27 11.26,784.47 -5.63,52.8 -56.3,67.89 -90.08,105.6 -33.78,30.17 -67.56,60.35 -101.34,98.06 -50.67,52.8 -157.63,165.95 -208.3,203.66z"/>
   <path class="fil1" d="M15000.45 13721.08c-73.19,0 -562.99,15.08 -579.88,-7.55 -16.89,-15.08 -11.26,-505.38 -11.26,-580.81l591.14 0 0 588.36zm-591.14 -776.94l0 -565.72 591.14 0 0 588.35 -562.99 0c-16.89,0 -28.15,0 -28.15,-22.63zm1086.56 15.09l0 -580.81 579.88 0 -579.88 580.81zm0 -769.39l0 -565.72 585.51 0 0 588.35 -557.36 0c-22.52,0 -28.15,0 -28.15,-22.63zm-1086.56 0l0 -535.55c0,-22.63 11.26,-30.17 28.15,-30.17l562.99 0 0 588.35 -562.99 0c-16.89,0 -28.15,0 -28.15,-22.63zm1086.56 -754.3l0 -565.73 585.51 0 0 588.36 -557.36 0c-22.52,0 -28.15,0 -28.15,-22.63zm-1086.56 0l0 -535.56c0,-22.62 11.26,-30.17 28.15,-30.17l562.99 0 0 588.36 -562.99 0c-16.89,0 -28.15,0 -28.15,-22.63zm1086.56 -754.3l0 -565.73 585.51 0 0 588.36 -557.36 0c-22.52,0 -28.15,0 -28.15,-22.63zm-1086.56 0l0 -565.73 591.14 0 0 588.36 -562.99 0c-16.89,0 -28.15,0 -28.15,-22.63zm1086.56 -754.31l0 -565.72 585.51 0 0 588.35 -557.36 0c-22.52,0 -28.15,0 -28.15,-22.63zm-1086.56 0l0 -565.72 591.14 0 0 588.35 -562.99 0c-16.89,0 -28.15,0 -28.15,-22.63zm1086.56 -1320.02l585.51 0 0 588.35 -585.51 0 0 -588.35zm-1086.56 565.72l0 -565.72 591.14 0 0 588.35 -562.99 0c-16.89,0 -28.15,0 -28.15,-22.63zm1086.56 -1320.03l585.51 0 0 588.36 -585.51 0 0 -588.36zm-1086.56 565.73l0 -565.73 591.14 0 0 588.36 -562.99 0c-16.89,0 -28.15,0 -28.15,-22.63zm1086.56 -1320.03l585.51 0 0 588.36 -585.51 0 0 -588.36zm-1086.56 0l591.14 0 0 588.36 -591.14 0 0 -588.36zm1086.56 -754.3l585.51 0 0 588.35 -585.51 0 0 -588.35zm-1086.56 30.17c0,-22.63 11.26,-30.17 28.15,-30.17l562.99 0 0 588.35 -591.14 0 0 -558.18zm1086.56 -784.47l585.51 0 0 588.35 -585.51 0 0 -588.35zm-1086.56 30.17c0,-22.63 11.26,-30.17 28.15,-30.17l562.99 0 0 588.35 -591.14 0 0 -558.18zm1086.56 -754.31c0,-22.62 5.63,-30.17 28.15,-30.17l557.36 0 0 588.36 -585.51 0 0 -558.19zm-1086.56 0c0,-22.62 11.26,-30.17 28.15,-30.17l562.99 0 0 588.36 -591.14 0 0 -558.19zm591.14 8855.52l1030.26 -1063.57c33.78,-30.17 61.93,-52.8 90.08,-90.52l427.87 -445.03c28.15,-52.81 0,-1561.41 0,-1742.44 0,-1169.17 -16.89,-2338.34 -11.26,-3515.05 0,-67.89 -11.26,-90.52 -11.26,-158.41 5.63,-882.53 -5.63,-1749.98 -5.63,-2632.51l-1469.39 -988.14c-84.45,-52.8 -163.27,-105.6 -242.09,-165.95l-1232.94 -829.73c-22.52,-15.08 -33.78,-22.63 -56.3,-37.71l-675.58 -452.59c-39.41,-30.17 -219.56,-158.4 -253.34,-165.94 0,188.57 0,377.15 0,558.18 0,196.12 11.26,362.07 11.26,550.64 0,188.58 0,377.15 0,565.73 0,196.12 11.26,362.06 11.26,558.18 0,188.58 0,377.15 0,558.19 0,196.12 11.26,369.61 11.26,558.18l0 837.28c0,113.14 5.63,150.86 5.63,264 0,754.31 11.26,1485.98 11.26,2240.28 0,67.89 -11.26,226.29 11.26,271.55 11.26,30.17 39.4,52.8 67.55,67.89 140.75,105.6 382.83,346.98 523.58,460.12 61.93,45.26 416.61,377.15 461.65,392.24 0,1923.47 -11.26,3831.86 -11.26,5762.87l692.47 -709.04c73.19,-82.98 123.86,-135.78 208.31,-211.21 33.78,-37.71 45.04,-60.34 78.82,-90.51 56.29,-60.35 106.96,-113.15 163.26,-165.95l163.27 -181.03z"/>
   <path class="fil2" d="M17004.68 18707.01c0,7.55 -22.52,0 39.41,60.35l883.88 965.51c22.52,22.63 28.15,37.71 56.3,60.34 16.89,22.63 39.41,37.72 61.93,67.89l1351.17 1478.43c33.78,22.63 56.3,15.09 112.59,15.09l489.8 0c95.71,0 146.38,-7.54 242.09,-7.54 326.53,0 658.69,0 985.22,0 332.16,0 641.81,-15.09 979.6,-15.09 -11.26,-37.72 -202.68,-218.75 -242.09,-264.01l-168.89 -188.57c-28.15,-30.18 -56.3,-52.8 -84.45,-82.98l-1002.11 -1086.19c-33.78,-37.72 -50.67,-52.8 -84.45,-98.06l-247.72 -264.01c-33.78,-37.71 -61.93,-60.34 -90.07,-90.51l-726.26 -792.02c-22.52,-15.09 -5.63,-15.09 -22.52,-15.09 -16.89,-30.17 -101.33,-120.69 -129.48,-150.85 -22.52,-22.64 -45.04,-45.26 -67.56,-67.9l-534.84 -580.81c-22.51,-22.63 -45.04,-45.26 -67.56,-67.88 -191.41,-211.21 -405.35,-452.59 -602.39,-648.7 -95.71,-98.06 -236.46,-264.01 -337.79,-369.61 -28.15,-30.18 -39.41,-45.26 -61.93,-75.43 -28.15,-22.63 -50.67,-45.26 -73.19,-67.89l-230.82 -256.46c-22.52,-15.09 -22.52,-22.63 -45.04,-30.18 -5.63,-37.71 -11.26,-30.17 -56.3,-75.43 -33.78,-30.17 -39.41,-45.25 -67.56,-75.43l-258.97 -279.09c-45.04,-52.8 -90.08,-90.52 -129.49,-143.32 45.04,-30.17 90.08,-90.51 146.38,-150.86 50.66,-52.8 90.07,-98.06 140.75,-150.86 185.78,-188.57 388.46,-422.41 579.87,-610.98l208.3 -233.83c28.15,-30.18 50.67,-52.81 78.82,-75.44l287.12 -309.26c28.15,-30.17 33.78,-45.26 67.56,-75.43 28.15,-30.17 50.67,-52.8 78.82,-75.43l647.43 -701.5c28.15,-30.17 61.93,-45.26 56.3,-82.98 45.04,-15.08 84.45,-67.88 118.23,-98.06l388.46 -422.4c39.41,-37.72 56.3,-67.89 95.71,-105.61l202.67 -203.66c129.49,-143.32 253.35,-286.63 388.46,-422.41l337.8 -369.6c16.89,-22.64 33.77,-37.72 56.29,-52.8l782.55 -844.83c33.78,-30.17 67.56,-60.34 101.34,-98.06l489.8 -528.01c16.89,-15.08 28.15,-30.17 45.04,-45.26 33.78,-37.71 140.75,-150.86 146.38,-173.48l-2736.12 7.54c-33.78,7.54 -135.11,120.69 -157.63,150.86l-895.15 950.42c-28.15,22.63 -50.67,45.26 -73.19,75.43 -22.52,15.09 -16.89,22.63 -33.78,37.72l-636.17 663.78c-28.15,37.72 -39.41,52.8 -73.19,82.98 -22.52,30.17 -50.67,52.8 -73.19,75.43 -16.89,22.63 -16.89,30.17 -33.78,45.25 -16.89,15.09 -28.15,22.63 -39.4,37.72l-1266.73 1342.66c-50.66,60.34 -123.85,98.06 -146.37,173.49 -28.15,0 -5.63,-15.09 -67.56,52.8 -22.52,22.63 -45.04,45.26 -67.56,67.89 -22.52,22.62 -33.78,37.71 -56.3,67.88l-585.5 610.99c-28.15,30.17 -33.78,45.26 -61.93,67.89l-962.71 1025.85c-45.03,45.25 -95.71,90.51 -135.11,135.77l-123.86 135.78c11.26,22.62 22.52,30.17 45.04,52.8l343.42 377.15c33.78,45.26 61.93,60.34 95.71,105.6 16.89,22.63 22.52,30.17 45.04,52.8l219.56 241.38c28.15,22.63 5.63,7.54 39.41,22.63 5.63,22.63 28.15,52.8 50.67,75.43l202.68 218.74c22.51,22.64 45.03,45.26 67.55,67.89l326.54 362.07c22.51,30.17 33.77,37.71 61.92,67.89l135.12 143.31c28.15,30.17 39.41,45.26 67.56,82.97 101.33,90.52 292.75,316.81 399.72,429.96l264.6 286.63c28.15,30.18 33.78,45.26 61.93,75.44l450.39 482.75c28.15,22.62 0,7.54 33.78,22.62z"/>
   <path class="fil3" d="M17708.41 25510.83c0,-143.32 90.08,-218.75 242.08,-218.75l28.15 0 0 429.95 -28.15 0c-146.37,0 -242.08,-67.89 -242.08,-211.2zm1655.18 -248.92c123.86,-30.18 16.89,-52.81 281.49,-52.81 39.41,0 112.6,0 112.6,45.26 0,105.6 -90.08,218.75 -180.16,286.64 -11.26,7.54 -11.26,7.54 -22.52,22.63 -73.18,-52.8 -123.85,-128.24 -163.26,-211.21 -11.26,-30.17 -16.89,-60.34 -28.15,-90.51zm-8928.96 -739.22l0 1455.8c0,30.17 39.41,45.26 67.56,45.26l444.76 0c39.41,0 45.04,-7.54 67.56,-7.54 28.15,0 33.78,7.54 67.55,7.54l253.35 0c39.41,0 45.04,-7.54 67.56,-7.54 22.52,0 28.15,7.54 67.56,7.54l253.34 0c39.41,0 45.04,-7.54 67.56,-7.54 22.52,0 28.15,7.54 67.56,7.54l253.34 0c33.78,0 39.41,-7.54 67.56,-7.54 22.52,0 28.15,7.54 67.56,7.54l309.64 -7.54c22.52,0 16.89,7.54 56.3,7.54l326.53 -7.54c28.15,0 22.52,7.54 61.93,7.54l258.97 0c39.41,0 45.04,-7.54 67.56,-7.54 22.52,0 28.15,7.54 67.56,7.54l253.34 0c33.78,0 39.41,-7.54 67.56,-7.54 22.52,0 28.15,7.54 67.56,7.54l247.71 0c39.41,0 45.04,-7.54 67.56,-7.54 28.15,0 33.78,7.54 67.56,7.54l253.34 0c39.41,0 45.04,-7.54 67.56,-7.54 22.52,0 28.15,7.54 67.56,7.54l309.64 -7.54c28.15,0 22.52,7.54 56.3,7.54l264.6 0c39.41,0 45.04,-7.54 67.56,-7.54 22.52,0 28.15,7.54 67.56,7.54l247.71 0c39.41,0 45.04,-7.54 67.56,-7.54 28.15,0 33.78,7.54 67.56,7.54l253.34 0c39.41,0 45.04,-7.54 67.56,-7.54 22.52,0 28.15,7.54 67.56,7.54l253.34 0c39.41,0 45.04,-7.54 67.56,-7.54 22.52,0 28.15,7.54 67.56,7.54l309.64 -7.54c28.15,0 22.52,7.54 56.3,7.54l332.16 -7.54c22.52,0 16.89,7.54 56.3,7.54l1255.46 0c39.41,0 45.04,-7.54 67.56,-7.54 22.52,0 28.15,7.54 67.56,7.54l467.28 0c78.81,0 185.78,-7.54 253.34,-22.63 275.86,-75.43 112.6,-113.14 292.75,-37.71 191.42,75.43 337.79,60.34 529.21,52.8 22.52,0 16.89,7.54 56.3,7.54l472.91 0c22.51,0 56.29,-37.71 56.29,-60.34l0 -1440.72c0,-75.43 -174.52,-45.26 -309.64,-45.26 -22.52,0 -45.04,22.63 -45.04,45.26l0 1199.34 -478.54 0c-50.66,0 -56.29,-7.54 -106.96,-7.54 45.04,-60.35 95.7,-52.8 208.3,-271.55 22.52,-45.26 45.04,-113.15 61.93,-181.03 11.26,-52.81 22.52,-158.41 22.52,-211.21 -230.82,-158.4 -591.14,-181.03 -861.37,-60.34 -78.82,30.17 -202.67,98.06 -242.08,150.86 -16.89,67.88 112.59,346.98 180.15,445.04 16.89,22.62 28.15,37.71 45.04,60.34 16.89,22.63 33.78,37.71 45.04,60.34 -73.19,30.18 -810.7,15.09 -945.82,15.09l0 -686.42c0,-22.62 -28.14,-45.25 -50.66,-45.25 -315.28,0 -686.85,-37.72 -861.37,256.46 -67.56,105.6 -84.45,256.46 -45.04,377.15 11.26,37.72 28.15,67.89 39.41,98.06l-6615.09 0 0 -1199.34c0,-75.43 -174.52,-45.26 -309.64,-45.26 -22.52,0 -50.67,22.63 -50.67,45.26z"/>
   <path class="fil3" d="M19217.21 23210.2l0 -75.43c0,-128.23 129.49,-188.57 258.98,-188.57l0 437.49 -56.3 0c-106.97,0 -202.68,-67.89 -202.68,-173.49zm1334.28 -550.64c0,271.55 -28.15,233.84 174.52,233.84 67.56,0 157.64,-7.55 219.57,0 298.38,30.17 242.08,173.48 242.08,490.29 -365.94,0 -726.25,0 -1092.19,0l-270.23 0 0 -686.41c0,-22.63 -16.89,-37.72 -39.41,-37.72 -292.75,0 -557.36,-37.71 -771.29,135.78 -140.75,105.6 -191.42,301.72 -146.38,482.75 11.26,45.26 28.15,67.89 39.41,105.6 -45.04,0 -90.08,0 -135.12,0l-3558.07 7.54c-208.3,0 -501.06,-15.08 -709.36,-7.54 -11.26,0 -39.41,7.54 -50.67,7.54l-1869.11 -7.54c-230.83,7.54 -557.36,0 -793.81,0l-270.24 0 0 -1199.34c0,-22.63 -16.89,-37.71 -39.41,-37.71l-270.23 0c-22.52,0 -39.41,15.08 -39.41,37.71l0 1448.26c0,22.63 28.15,52.8 50.67,52.8l10274.5 0c33.77,0 50.66,-37.71 50.66,-67.88l0 -452.59c0,-437.49 -202.67,-565.72 -602.39,-565.72 16.89,-52.8 174.52,-150.86 219.56,-181.04 140.75,-82.97 157.64,-75.43 236.46,-105.6 11.26,-7.54 45.04,-15.08 33.78,-60.34 -5.63,-30.17 -95.71,-226.29 -112.6,-279.09 -33.78,15.08 -78.82,30.17 -123.86,45.25 -106.96,45.26 -253.34,143.32 -337.79,218.75 -33.78,30.17 -61.93,45.26 -95.71,82.98 -16.89,22.62 -16.89,30.17 -39.41,52.8 -45.03,52.8 -174.52,233.83 -174.52,286.63z"/>
   <path class="fil4" d="M9730.9 4103.72c-16.89,0 -5.63,-7.54 -28.15,7.54l-377.2 407.32c-22.52,22.64 -28.15,22.64 -28.15,67.89l0 731.68c0,558.18 0,1116.37 0,1674.55 28.15,-7.55 61.93,-75.43 78.82,-105.61l377.2 -565.72c50.67,-82.97 101.34,-158.41 152,-233.83 16.89,7.54 33.78,22.62 50.67,37.71 28.15,22.63 39.41,30.17 61.93,52.8l281.49 218.75c73.19,60.34 33.78,37.72 61.93,37.72 5.63,22.62 0,15.08 16.89,30.17l1469.4 1176.71c39.41,30.17 67.55,52.8 106.96,75.43 0,-505.38 11.26,-995.68 11.26,-1508.61 0,-505.38 0,-1010.76 0,-1516.14 0,-505.39 5.63,-995.69 5.63,-1508.61 0,-505.38 0,-1010.76 0,-1516.15 -50.67,30.17 -90.07,98.06 -140.74,143.32l-557.36 603.44c-22.52,30.17 -45.04,52.8 -73.19,75.43l-202.67 226.29c-56.3,52.8 -95.71,105.6 -146.38,158.4l-912.04 980.6c-22.52,30.17 -45.04,52.8 -67.56,75.43 -67.55,75.43 -123.85,113.14 -140.74,173.49z"/>
   <path class="fil3" d="M7563.4 25541l0 -67.89c0,-143.32 135.12,-181.03 264.61,-181.03l0 429.95c-129.49,0 -264.61,-30.17 -264.61,-181.03zm264.61 -603.44l0 52.8c-84.45,0 -191.42,15.08 -258.98,37.71 -444.76,128.23 -467.28,701.5 -163.26,890.08 225.19,143.32 624.91,105.6 934.55,105.6 33.78,0 45.04,-7.54 67.56,-7.54 22.52,0 28.15,7.54 67.56,7.54l557.36 0c22.52,0 50.66,-22.63 50.66,-45.26l0 -942.88c0,-75.43 -168.89,-45.25 -298.38,-45.25 -22.52,0 -50.67,22.63 -50.67,45.25l0 686.42 -551.72 0 0 -769.39c0,-22.63 -22.52,-52.8 -45.04,-52.8l-275.87 0c-22.51,0 -33.77,15.09 -33.77,37.72z"/>
   <path class="fil5" d="M12748.5 20125.1l0 -1003.22c-67.56,-15.08 -827.59,0 -962.7,0l0 1010.77c146.37,0 883.89,7.54 962.7,-7.55z"/>
   <polygon class="fil5" points="12951.18,20125.1 13902.62,20132.65 13902.62,19121.88 12945.55,19121.88 "/>
   <path class="fil5" d="M12934.29 17960.26l0 995.68c0,22.63 5.63,30.17 28.15,30.17l906.41 0c45.03,0 39.4,-105.6 39.4,-143.32 0,-264.01 -112.59,-512.93 -287.12,-686.41 -123.86,-120.69 -320.9,-211.21 -495.43,-226.3 -39.41,0 -191.41,-22.62 -191.41,30.18z"/>
   <path class="fil5" d="M11768.91 18789.99l11.26 196.12 957.07 0 0 -1056.03c-129.48,0 -16.89,-15.08 -202.67,0 -410.98,30.18 -765.66,467.67 -765.66,859.91z"/>
   <path class="fil3" d="M8396.62 22704.82l0 678.87 -630.54 0c-197.05,0 -95.71,-369.61 -95.71,-422.41l-28.15 -30.17 -281.49 0c-5.63,30.17 -11.26,30.17 -22.52,60.34 -112.6,324.35 -22.52,693.96 360.31,693.96l1007.74 0c22.52,0 50.67,-30.17 50.67,-52.8l0 -927.79c0,-75.43 -180.15,-45.26 -309.64,-45.26 -22.52,0 -50.67,22.63 -50.67,45.26z"/>
   <path class="fil3" d="M9567.63 26182.15l-78.82 0c-118.22,0 -95.7,-143.31 -208.3,45.26 -22.52,37.72 -61.93,90.52 -73.19,128.23 118.23,158.41 833.22,286.64 833.22,-331.89l0 -988.14c0,-75.43 -168.9,-45.25 -298.38,-45.25 -84.45,0 -61.93,181.03 -61.93,279.09l0 678.87c0,60.34 16.89,233.83 -112.6,233.83z"/>
   <path class="fil3" d="M10079.95 23421.41l-146.38 37.71 0 226.29c45.04,37.72 22.52,30.18 140.75,15.09 45.04,-7.54 67.56,-15.09 106.97,-22.63 135.11,-22.63 315.27,-30.17 450.39,-52.8 191.41,-22.63 180.15,75.43 180.15,-248.92 0,-22.63 -11.26,-30.17 -28.15,-52.8 -191.41,0 -349.05,67.88 -405.35,22.63 -73.19,-67.89 -106.97,-324.35 219.57,-256.47 56.3,7.55 101.33,52.81 123.85,-30.17l56.3 -203.66c-174.52,-90.52 -410.98,-98.06 -591.13,-7.54 -174.53,82.97 -247.72,301.72 -168.9,482.75 22.52,52.8 33.78,52.8 61.93,90.52z"/>
   <path class="fil3" d="M21182.03 24522.69l0 1455.8c0,75.43 168.9,45.26 298.39,45.26 22.52,0 50.66,-22.63 50.66,-45.26l0 -1463.34c0,-22.63 -16.88,-37.72 -39.4,-37.72 -135.12,0 -309.65,-30.17 -309.65,45.26z"/>
   <path class="fil3" d="M9190.43 22184.35l0 1448.26c0,75.43 168.9,52.8 298.38,52.8 22.52,0 50.67,-30.17 50.67,-52.8l0 -1448.26c0,-22.63 -16.89,-37.71 -39.41,-37.71l-270.23 0c-22.52,0 -39.41,15.08 -39.41,37.71z"/>
   <path class="fil3" d="M7844.9 24673.55c0,218.75 320.9,211.2 320.9,15.09l0 -60.35c0,-165.95 -320.9,-203.66 -320.9,45.26z"/>
   <path class="fil3" d="M8019.42 22546.42c0,241.37 320.9,203.66 320.9,37.71 0,-113.14 -11.26,-203.66 -168.89,-203.66 -101.34,0 -152.01,82.97 -152.01,165.95z"/>
   <path class="fil3" d="M8588.04 26506.5c95.7,0 157.63,-90.51 152,-181.03 -5.63,-90.51 -67.56,-173.49 -168.89,-165.94 -208.31,15.08 -202.68,346.97 16.89,346.97z"/>
   <path class="fil3" d="M18136.28 24545.32c-219.57,0 -219.57,339.43 0,339.43 213.93,0 213.93,-339.43 0,-339.43z"/>
   <path class="fil3" d="M17640.85 24718.81c0,90.51 56.3,158.4 152.01,165.94 219.56,22.63 225.19,-339.43 11.26,-339.43 -101.34,0 -163.27,67.89 -163.27,173.49z"/>
   <path class="fil3" d="M19267.88 22380.47c0,82.97 61.93,173.49 163.27,173.49 146.37,0 208.3,-196.12 118.22,-294.18 -101.33,-105.6 -281.49,-30.17 -281.49,120.69z"/>
   <path class="fil3" d="M8756.93 26317.93c0,98.06 28.15,188.57 163.27,188.57 185.78,0 219.56,-324.35 5.63,-339.43 -90.08,-15.09 -168.9,52.8 -168.9,150.86z"/>
   <path class="fil3" d="M7692.89 22553.96c0,203.66 315.27,241.38 315.27,-22.63 0,-203.66 -315.27,-218.75 -315.27,22.63z"/>
   <path class="fil3" d="M7518.36 24673.55c0,203.66 315.28,241.38 315.28,-22.63 0,-196.12 -315.28,-226.29 -315.28,22.63z"/>
   <path class="fil6" d="M12945.55 19121.88l957.07 0 0 1010.77 -951.44 -7.55 -5.63 -1003.22zm-5.63 1025.85l968.33 0 0 -1040.93 -968.33 0 0 1040.93z"/>
   <path class="fil7" d="M12748.5 20125.1c-78.81,15.09 -816.33,7.55 -962.7,7.55l0 -1010.77c135.11,0 895.14,-15.08 962.7,0 -22.52,-15.08 11.26,0 -22.52,-7.54l-945.81 -7.54 0 1040.93 940.18 0c33.78,-7.54 5.63,0 28.15,-22.63z"/>
  </g>
 </g>
</svg>
