<?xml version="1.0" encoding="UTF-8"?>
<!DOCTYPE svg PUBLIC "-//W3C//DTD SVG 1.1//EN" "http://www.w3.org/Graphics/SVG/1.1/DTD/svg11.dtd">
<!-- Creator: CorelDRAW -->
<svg xmlns="http://www.w3.org/2000/svg" xml:space="preserve" width="279.4mm" height="279.4mm" version="1.1" style="shape-rendering:geometricPrecision; text-rendering:geometricPrecision; image-rendering:optimizeQuality; fill-rule:evenodd; clip-rule:evenodd"
viewBox="0 0 27940 27940"
 xmlns:xlink="http://www.w3.org/1999/xlink"
 xmlns:xodm="http://www.corel.com/coreldraw/odm/2003">
 <defs>
  <style type="text/css">
   <![CDATA[
    .fil5 {fill:#226562}
    .fil0 {fill:#246466}
    .fil1 {fill:#256464}
    .fil2 {fill:#266264}
    .fil4 {fill:#296266}
    .fil6 {fill:#2B625E}
    .fil3 {fill:#2B6364}
    .fil7 {fill:#B99A7B}
   ]]>
  </style>
   <mask id="id0">
  <linearGradient id="id1" gradientUnits="userSpaceOnUse" x1="13742.29" y1="3723.37" x2="13742.31" y2="12569.33">
   <stop offset="0" style="stop-opacity:1; stop-color:white"/>
   <stop offset="1" style="stop-opacity:0; stop-color:white"/>
  </linearGradient>
    <rect style="fill:url(#id1)" x="8248.05" y="1893.8" width="11593.59" height="14685.99"/>
   </mask>
 </defs>
 <g id="Layer_x0020_1">
  <metadata id="CorelCorpID_0Corel-Layer"/>
  <path class="fil0" d="M22239.98 15894.12c-73.6,10.6 -141.43,103.25 -212.39,154.4 -23.7,17.08 -212.68,138.21 -218.46,145.7 -38.11,49.37 72.09,495.51 92.08,591.92 75.06,361.67 159.8,904.3 180.53,1277.23 22.84,410.92 17.14,345.09 -363.99,294.61 -1164.38,-154.2 -721.7,-904.12 -823.48,-1345.75 -46.71,-3.43 -315.68,68.7 -355.21,97.12 -21.35,199.76 133.47,740.4 -17.25,974.22 -130.27,202.12 -466.58,309.57 -783.5,310.33 -338.52,0.8 -582.71,-159.88 -691.4,-402.82 -175.65,-392.61 -40.51,-797.92 -76.35,-980.62 -77.52,-1.56 -104.24,21.69 -174.54,41.71l-137.46 36.86c-170.56,73.01 215.24,590.42 -370.42,913.67 -792.07,437.15 -2512.19,391.75 -3410.49,391.75 -436.91,0 -1459.99,94.19 -1735.88,-174.25 -121.23,-117.98 -447.25,-1174.6 -512.92,-1379.22 -53.29,-165.97 -103.09,-322.96 -156.3,-485.3 -29.25,-89.23 -110.18,-402.84 -164.06,-465.15 -100.26,1.8 -79.57,11.91 -136.74,92.45 -27.59,38.91 -54.7,73.66 -96.05,129.49 -29.22,39.43 -57.64,75.5 -97.74,127.61 -42.61,55.36 -62.51,66.95 -39.76,142.7 53.85,179.32 179.9,443.85 256.5,632.25l508.82 1255.01c-310.35,164.33 -1476.69,201.96 -1646.31,-134.97 -104.95,-208.45 4.39,-396.4 34.16,-575.46l-174.73 -52.83c-133.53,378.91 -511.3,1154.48 291.86,1325.27 174.5,37.11 1178.8,67.66 1345.1,-123.49 49.84,-57.29 185.39,-239.91 240.95,-264.12 141.04,173.89 226.29,323.21 495.68,391.4 200.05,50.66 2273.47,21.67 2576.9,21.69 709.75,0.06 1631.09,-50.04 2271.48,-327.94 177.84,-77.17 412.46,-249.32 482.91,-385.83l142.86 286.22c148.79,261.48 446.62,411.29 765.15,428.85 247.7,13.65 498.18,-28.5 701.41,-110.58 276.23,-111.57 325.91,-242.32 444.67,-355.23 66.24,58.41 96.54,134.09 158.77,189.26 48.2,42.77 130.38,96.59 199.04,130.97 145.02,72.56 349.48,122.67 531.32,140.43 267.64,26.14 399.21,24.66 525.24,-138.81 337.58,-437.86 355.01,-533.89 343,-997.94 -5.83,-225.18 -21.1,-416.95 -45.46,-637.48 -42.13,-381.19 -64.91,-813.64 -147.54,-1185.33z"/>
  <path class="fil0" d="M5845.56 17734.28c23.66,-78.47 198.08,-206.08 267.77,-258.24 139.46,-104.32 828.47,-565.12 938.32,-546.11l72.56 1014.54c-356.77,58.36 -1041.45,96.43 -1278.65,-210.19zm4188.88 -1377.9c-105.98,0.65 -150.3,88.28 -213.7,140.4 -348.65,286.63 -257.29,236.75 -156.13,669.61 55.03,235.43 209.75,934.99 197.28,1158.11 -184.69,90.83 -1442.67,66.8 -1789.03,66.9 -590.13,0.16 -561.08,-158.86 -561.12,-674.47 -0.02,-468.39 25.52,-1479.8 -3.16,-1830.44 -108.48,-14.39 -192.58,75.49 -267.81,129.89 -87.2,63.06 -153.2,117.97 -234.68,164.51l4.7 268.82c-691.73,428.02 -664.52,427.4 -1224.21,890.01 -293.87,242.9 -407.07,706.18 -113.38,953.53 289.07,243.47 746.47,272.38 1118.62,209.71 145.22,-24.47 150.86,-20.79 216.69,-131.96 39.86,-67.29 97.99,-171.51 151.83,-212.99 26.08,237.32 151.99,467.94 284.64,568.94 199.99,152.25 409.59,134.4 697.31,134.4 308.59,0 1394.63,29.46 1598.32,-66.64 111.46,-52.57 302.67,-332.76 377.05,-473.86 191.44,-363.25 5.93,-1025.87 32.17,-1117.64 27.62,-96.63 170.71,-101.67 123.35,-244.19 -43.2,-129.95 -169.79,-522.37 -238.74,-602.64z"/>
  <path class="fil0" d="M18702.67 20615.91c60.44,41.37 337.78,105.3 427.11,133.43l-0.12 1662.48c-74.88,-33.91 -147.76,-172.86 -199.21,-241.52l-1254.94 -1734.12 -900.02 0.41 2.46 201.01c84.94,20.57 294.16,86.63 363.85,134.54l-2.12 2169.89c-46.97,34.24 -116.88,50.19 -178.86,69.38 -63.85,19.77 -116.58,34.59 -183.16,60.94l0 180.73 1134.51 -3.87 -1.41 -184.63 -442.45 -116.32 -1.09 -1863.78c53.06,26.31 171.69,214.42 212.49,270.27 169.95,232.71 1345.73,1814.66 1411.77,1937.25l359.52 -1.01 1.93 -2547.2c89.97,-61.57 250.34,-69.71 361.2,-127.8l0.7 -180.53 -1114.87 6.85 2.71 173.6z"/>
  <path class="fil0" d="M11593.49 22994.7l-3.24 -2301.25c463.37,4.18 752.6,-15.13 1076.98,223.44 471.81,347.01 515.77,1473.76 21.47,1866.69 -268.7,213.58 -690.79,210.2 -1095.21,211.12zm1106.19 131.2c512.97,-193.77 886.96,-599.81 905.68,-1277 20.83,-752.79 -270.35,-1138.1 -866.49,-1316.27 -518.09,-154.86 -1509.43,-96.49 -2107.52,-96.88l4.57 180.16c121.83,64.23 308.75,67.7 436.71,122.73l-2.05 2217.25c-99.25,27.95 -203.35,54.81 -300.92,78.16 -167.82,40.18 -150.14,20.5 -137.72,213.97 266.62,37.35 807.88,5.7 1103.7,5.72 373.68,0 642.6,-6.42 964.04,-127.84z"/>
  <path class="fil0" d="M8958.18 20969.44c35.04,36.7 312.65,931.53 333.36,1043.7l-728.16 -2.58 394.8 -1041.12zm-746.04 2008.45c8.57,-49.86 227.93,-702.64 277.34,-718.94l888.21 5.87 223.57 729.97 -312.98 84.18 4.16 174.6 1196.66 -1.21 -5.19 -171.46c-172.6,-91.65 -273.33,-17.33 -327.68,-157.07 -44.49,-114.41 -86.42,-241.92 -125.68,-361.08 -76.23,-231.42 -169.03,-482.48 -252.97,-717.71 -115.72,-324.29 -396.48,-1171.74 -505.81,-1420.75l-368.74 0.35c-137.54,376.94 -420.62,1025.25 -588.33,1440.17l-435.57 1074.56c-44.82,90.7 -262.03,109.4 -356.77,145.51l1.78 168.53 1063.08 -5.45 -1.39 -171.82 -373.69 -98.25z"/>
  <path class="fil0" d="M14717.73 22010.93c47.77,-170.85 135.67,-374.06 197.48,-541.05 37.18,-100.41 150.15,-463.04 209.07,-500.25l318.82 1042.14 -725.37 -0.84zm-350.21 970.43c21.4,-193.72 195.21,-511.68 247.55,-722.34l904.86 5.66c38.81,63.12 216.47,639.63 233.02,733.3 -84.78,15.61 -242.41,55.32 -313.21,89.73l1.33 165.31 1192.85 0.62 2.15 -179.59 -308.04 -96.51 -898.83 -2553.05 -377.72 1.75 -872.08 2146.86c-177.59,405.3 -90.78,395.61 -311.37,453.26 -62.95,16.44 -125.05,37.17 -190.31,51.48l4.88 176.21 1049.95 -6.73c7.65,-171.16 35.27,-166.28 -112.31,-204.19 -83,-21.32 -168.21,-50.44 -252.72,-61.77z"/>
  <path class="fil0" d="M20517.83 22010.95c31.07,-122.73 357.39,-1001.28 404.02,-1045.01l321.38 1046.79 -168.37 0.68 -433.99 0.17 -123.04 -2.63zm-352.24 970.39c26.92,-211.04 205.18,-508.05 248.93,-722.02l886.02 -0.14c50.33,31.21 25.38,4.2 51.68,76.13l199.33 658.96 -307.11 86.61 3.65 172.49c366.33,0.72 844.7,13.24 1189.91,-6.95 3.71,-270.5 -9.58,-145.43 -259.65,-244.09 -77.99,-30.77 -69.77,-79.14 -98.76,-163.67 -19.58,-57.17 -41.79,-115.6 -63.38,-177.58 -86.44,-248.17 -171.48,-486.93 -262.6,-745.24 -139.65,-395.96 -423.71,-1140.89 -525.68,-1489.6l-378.09 0.49c-79.76,236.19 -190.82,484.42 -288.93,716.7l-582.75 1430.98c-173.58,422.43 -70.14,412.03 -502.27,503.41l2.51 176.04 1056.08 -3.16 2.07 -174.78 -370.96 -94.58z"/>
  <path class="fil0" d="M5508.23 23113.15c558.36,299.73 2014.62,317.55 1969.84,-692.2 -44.98,-1014.04 -1757.31,-749.94 -1444.33,-1500.39 96.86,-232.23 402.68,-313.39 709.71,-241.32 452.85,106.29 229.9,262.01 409.4,587.15l206.39 -4.82 -3.26 -696.08c-453.92,-217.25 -1214.15,-262.58 -1548,94.38 -190.08,203.22 -292.45,423.55 -223.71,744.6 154.95,723.68 1326.73,616.32 1407.82,1090.33 78.98,461.69 -414.88,636.58 -883.82,485.76 -69.49,-22.35 -119.55,-39.74 -187.5,-74.53 -84.74,-43.41 -70.92,-41.6 -98.09,-144.81 -19.02,-72.28 -79.41,-318.91 -110.67,-370.51l-204.66 3.2 0.88 719.24z"/>
  <path class="fil0" d="M17689.82 25661.79c-175.94,-70.22 -178.64,-328.31 -15.34,-341.91 176,-14.66 196.22,260.12 15.34,341.91zm592 -237.4c120.91,-129.85 297.5,-154.92 403.36,0 -20.94,70.51 -135.81,177.78 -196.83,209.5 -81.93,-30.2 -183.5,-125.71 -206.53,-209.5zm355.46 251.43c25.84,-55.36 0.72,-9.7 33.57,-51.04 77.74,-97.88 166.89,-153.81 109.65,-248.49 -116.09,-191.95 -448.55,-228 -590.72,-4.51 -71.67,112.66 89.56,218.37 135.53,304.01l-461.01 -2.48c36.23,-93.08 90.62,-192.81 37.36,-322.53 -79.92,-194.57 -369.86,-181.76 -439.67,18.43 -50.17,143.83 9.66,197.94 43.12,306.91 -430.87,-1.39 -321.18,74.59 -345.05,-707.96l-110.79 53.63c5.47,785.06 -75.48,766.83 553.76,758.22 231.07,-3.18 608.75,26.37 819.87,-7.3 177.6,-28.29 575.13,82.69 710.23,-51.17 111.61,-110.58 59.91,-545.73 61.71,-754.35l-109.92 57.94c-13.92,175.55 55.14,532.4 -54.7,630.12 -87.51,40.84 -282.67,20.95 -392.94,20.57z"/>
  <path class="fil0" d="M6035.24 15269.29c26.71,29.3 47.52,71.9 83.85,113.87 43.61,50.4 220.39,248.31 269.93,256.41 55.62,9.13 305.86,-266.31 362.98,-313.51 88.1,110.18 215.98,239.25 331.39,318.72 92.08,-46.71 332.46,-263.85 377.3,-375.49 -32.87,-75.29 -295.27,-334.88 -377.3,-371.72 -89.23,49.82 -236.32,241.48 -329.83,318.39l-347.18 -321.55c-92.34,47.34 -316.52,287.66 -371.14,374.88z"/>
  <path class="fil0" d="M20276.6 15507.1c-260.66,15.87 -654.23,127.49 -917.02,182.01l-2473.48 531.25c-67.72,29.22 -54.72,84.19 -90.31,152.71 67.43,6.33 1497.02,-321.57 1707.81,-361.04 456.6,-85.48 1361.97,-310.93 1723.85,-356.1l49.15 -148.83z"/>
  <path class="fil1" d="M14595.02 25597.25c-159.84,119.76 -284.91,-17.12 -223.01,-192.46 22.39,-63.4 114.06,-112.91 193.69,-51.14 47.61,36.95 30.86,168.23 29.32,243.6zm-2.64 -357.31c-113.76,-19.33 -173.23,-43.16 -260.45,37.93 -121.55,113.04 -121.4,364.44 41.6,442.46 117.83,56.4 169.39,2.6 261.08,-18.05 113.77,117.63 300.84,80.31 503.43,80.46 190.99,0.14 382.07,-0.68 572.85,0 610.89,2.13 614.23,79.71 616.14,-542.47 -130.61,31.29 -114.9,42.65 -111.99,183.67 1.89,91.5 19.05,176.12 -48.06,230.8 -74.65,37.89 -1272.49,37.05 -1410.13,8.34 -76.68,-98.74 -49.74,-344.37 -46.42,-509.87 -70.8,16.74 -99.68,26.19 -118.05,86.73z"/>
  <path class="fil0" d="M6608.48 13958.37c169.19,0.53 271.4,67.74 302.79,199.92 -59.07,61.66 -165.87,82.8 -266.5,85.42 -82.44,-135.79 -88.14,-111.06 -36.29,-285.34zm257.87 -623.97c-88.35,-4.02 -129.11,133.91 -167.64,213.79 -96.05,199.18 -390.11,710.34 -173.99,890.79 204.19,170.48 690.34,-212.57 451.34,-572.67 -65.04,-97.98 -127.1,-114.28 -251.25,-145.04l141.54 -386.87z"/>
  <path class="fil0" d="M9895.58 15634.22c101.73,-47.98 322.16,-257.82 362.32,-364.93 -40.47,-82.96 -283.2,-328.34 -362.32,-364.93 -89.95,53.84 -287.66,267.48 -351.2,364.93 34.61,106.76 259.3,312.98 351.2,364.93z"/>
  <path class="fil0" d="M8543.12 25064.23c140.75,-9.94 240.58,0.15 238.84,150.76 -1.81,155.41 -100.61,157.63 -245.26,151.93l6.42 -302.69zm244.56 377.52c48.2,-54.86 98.9,-73.7 116.11,-158.79 70.71,-349.91 -260.43,-325.47 -485.72,-307.36l-4.1 727.32c3.63,34.47 3.28,22.12 10.33,48.16 1.11,4.12 5.31,17.14 6.22,14.72 0.92,-2.42 3.97,9.97 6.89,14.23l96.34 -0.12 1.97 -313.49 137.92 1.68 135.89 310.23 119.97 2.69c-29.86,-126.86 -110.06,-229.62 -141.82,-339.27z"/>
  <path class="fil0" d="M10889.68 25079.9l371.91 -8.39 -2.28 -93.74 -492.56 1.6 6.76 801.63 501.87 -3.55 1.05 -91.79 -389.31 -5.83 6.54 -264.71 304.45 -2.69c-0.49,-138.37 5.41,-86.66 -309.35,-98.84l0.92 -233.69z"/>
  <path class="fil2" d="M13483.35 25443.62c18.39,-138.58 69.71,-179.91 219.71,-158.24 47.44,64.23 59.83,63.11 67.27,157.54l-177.27 0.64 -109.71 0.06zm382.54 275.89c-51.62,-108.79 -79.92,12.52 -236.44,-16.96 -79.26,-14.93 -137.45,-79.84 -134.5,-166.11l392.74 -5.17c2.29,-434.79 -407.23,-425.42 -506.47,-162.47 -148.87,394.46 341.03,538.37 484.67,350.71z"/>
  <path class="fil1" d="M9098.15 25440.05c34.06,-222.23 274.13,-226.99 292.91,2.42l-207.24 2.15 -85.67 -4.57zm406.33 94.83c6.56,-222.66 -110.08,-406.9 -348.65,-330.61 -150.27,48.04 -231.17,278.8 -146.23,445.9 110.82,218 434.75,147.25 461.77,77.05 53.16,-138.19 -359.77,118.44 -363.6,-190.87l396.71 -1.47z"/>
  <path class="fil3" d="M9951.61 25493.63l-0.25 158.46c-71.9,50.83 -222.33,108.22 -240.78,-24.35 -18.41,-132.23 126.99,-132.23 241.03,-134.11zm-281.71 -164.32c120.04,-37.54 264.82,-121.17 285.09,84.17 -183.89,3.1 -377.13,20.01 -364.11,215.67 12.61,189.55 233.84,210.28 358.91,111.43 64.4,33.28 -11.1,45.95 120.59,35.64 -0.88,-136.06 18.13,-409.06 -39.24,-505.07 -99.85,-167.16 -327.08,-39.45 -399.31,-4.39l38.07 62.55z"/>
  <path class="fil2" d="M12451.74 25548.29c70,-50.19 123.33,-60 233.47,-50.28 5.72,148.38 -31.19,257.97 -224.16,189.72 -15.64,-42.22 -20.83,-82.53 -9.31,-139.44zm-54.43 -214.63c107.78,-54.43 268.18,-112.6 289.01,75.82 -178.13,19.48 -363.42,11.38 -364.48,205.79 -1.15,206.81 230.94,222.35 355.17,125.81 80.94,29.68 -25.28,42.62 110.22,39.2 22.72,-112.5 23.15,-428.99 -28.05,-510.83 -88.28,-141.11 -287.65,-70.8 -395.19,1.68l33.32 62.53z"/>
  <path class="fil0" d="M14455.17 17063.81c-82.01,46.44 -87.49,184.43 -202.24,182.81 -281.16,-3.98 42.15,-795.89 50.29,-917.88 -145.04,153.59 -272.93,600.65 -267.4,885.21 6.17,318.31 181.62,327.87 275.89,249.36 65.59,-54.6 143.15,-279.19 143.46,-399.5z"/>
  <path class="fil1" d="M12594.32 14901.08c-380.99,52.67 -798.67,154.16 -1173.43,244.78 -257.35,62.25 -266.27,37.56 -299.24,176.16 220.84,-34.69 490.6,-116.58 724.93,-169.33 219.81,-49.48 512.35,-85.27 721.13,-142.19l26.61 -109.42z"/>
  <path class="fil3" d="M11490.3 25298.85c186.51,-74.84 190,85.88 255.12,-48.04 -116.63,-119.29 -415.19,-68.32 -374.29,135.2 42.28,210.46 348.08,67.18 280.71,302.43 -64.89,20.41 -97.47,27.27 -173.13,8.37 -89.68,-22.41 -67.78,-55.38 -115.39,22.7l50.32 44.43c15.19,8.61 50.47,19.43 65.32,22.76 49.37,11.01 101.75,14.35 151.66,5.31 84.08,-15.24 151.8,-75.58 147.6,-176.62 -10.35,-249.25 -340.96,-97.28 -287.92,-316.54z"/>
  <path class="fil4" d="M12113.2 25798.09c115.45,-11.27 115.7,-48.05 123.16,-76.84 -72.01,-54.31 -55.01,-0.1 -165.67,-25.59 -27.41,-98.62 -15.13,-290.91 -13.18,-399.97 111.93,-2.15 159.29,35.65 171.14,-62.25 -49.84,-38.21 -107.46,-24.09 -171.2,-29.73l-3.96 -169.27 -108.42 48.39 -3.4 116.62c-92.37,13.06 -79.7,-15.46 -85.85,68.7 4.99,2.96 14.62,11.92 18.15,14.27l68.54 37.81c-0.33,261.35 -53.8,499.82 170.69,477.86z"/>
  <path class="fil1" d="M12949.55 25202.46c-97.41,66.51 1.07,83.61 22.7,111.72 98.66,128.13 -150.98,621.31 313.02,445.88 -20.63,-108.73 -21.06,-43.85 -120.64,-60.6 -119.35,-20.1 -61.22,-298.24 -60.18,-401.97l169.56 -5.65 -3.83 -83.31 -165.99 -6.76 -0.82 -164.31 -110.02 48.24 -2.69 95.67 -41.11 21.09z"/>
  <path class="fil0" d="M16412.92 25979.89c149.32,117.32 338.21,21.9 393.24,-137.39 36.99,-107.1 22.95,-473.33 14.78,-611.37l-100.21 54.39c-27.33,153.42 13.92,346.4 -14.58,491.91 -39.67,202.73 -181.55,125.84 -294.2,120.62l0.97 81.84z"/>
  <path class="fil1" d="M19419.35 25720.66c12.73,57.92 -8.84,35.28 41.11,59.31 96.32,21.79 70.67,-41.87 74.36,-75.74l-3.55 -737.22 -111.78 47.67 -0.14 705.98z"/>
  <path class="fil1" d="M10226.7 25780.11l111.82 -13.28 0.21 -788.51c-51.38,-0.3 -71.07,16.69 -112.22,46.81l0.19 754.98z"/>
  <path class="fil3" d="M16031.01 26024.94c243.57,45.39 39.53,-222.33 -3.51,-89.78l-9.9 43.32c-0.45,28.91 5.66,23.91 13.41,46.46z"/>
  <path class="fil3" d="M16290.12 25927.82c-126.11,-71.09 -133.96,56.44 -98.14,90.89 42.27,40.67 139.66,16.79 98.14,-90.89z"/>
  <path class="fil3" d="M17806.13 25076.39c21.47,-14.23 27.37,-38.14 22.52,-66.8 -11.1,-65.51 -80.34,-46.4 -115.11,-29.4 -32.27,138.64 71.89,109.9 92.59,96.2z"/>
  <path class="fil5" d="M14480.84 25045.35c66.18,-145.8 -164.09,-147.64 -93.84,0.76 51.66,27.82 43.4,28.97 93.84,-0.76z"/>
  <path class="fil6" d="M14634.61 24948.53c-124.33,-42.13 -161.99,145.21 10.68,105.57 16.86,-70.63 21.67,-46.8 -10.68,-105.57z"/>
  <polygon class="fil3" points="17657.01,24964.69 17547.8,24973.57 17555.4,25080.37 17660.01,25077.5 "/>
  <path class="fil7" style="mask:url(#id0)" d="M8854.53 12931.3l16.98 -8207.64 736.88 -305.62 40.76 9769.7 577.28 183.38 6.79 -1337.95 10.19 -9599.91 -1986.54 798.01 13.58 10031.18 580.68 -319.2 3.4 -1011.95zm10363.41 -8952.71l614.88 250.05 0 12342.33 -614.88 0 0 -12592.38zm-1361.25 -534.77l614.89 250.05 0 12342.32 -614.89 0 0 -12592.37zm-1373.4 -546.93l614.89 250.05 0 12342.33 -614.89 0 0 -12592.38zm-560.7 12044.35l-173.31 -68.01 -642.84 0 0 -11811.75 -747.82 -292.99 0 2640.15 -616.33 0 0 -3370.55 304.91 -135.47 1690.57 678.31 0 12594.6 184.82 -234.29zm-2936.81 -12591.28l-614.88 250.05 0 12342.33 614.88 0 0 -12592.38zm-1373.39 546.93l-614.89 250.06 0 735 614.89 -259.39 0 -725.67z"/>
 </g>
</svg>
