<?xml version="1.0" encoding="UTF-8"?>
<!DOCTYPE svg PUBLIC "-//W3C//DTD SVG 1.1//EN" "http://www.w3.org/Graphics/SVG/1.1/DTD/svg11.dtd">
<!-- Creator: CorelDRAW -->
<svg xmlns="http://www.w3.org/2000/svg" xml:space="preserve" width="279.4mm" height="279.4mm" version="1.1" style="shape-rendering:geometricPrecision; text-rendering:geometricPrecision; image-rendering:optimizeQuality; fill-rule:evenodd; clip-rule:evenodd"
viewBox="0 0 27940 27940"
 xmlns:xlink="http://www.w3.org/1999/xlink"
 xmlns:xodm="http://www.corel.com/coreldraw/odm/2003">
 <defs>
  <style type="text/css">
   <![CDATA[
    .fil1 {fill:#227470}
    .fil2 {fill:#818286}
    .fil0 {fill:#828185}
   ]]>
  </style>
 </defs>
 <g id="Layer_x0020_1">
  <metadata id="CorelCorpID_0Corel-Layer"/>
  <path class="fil0" d="M11945.07 23499.12c-329.16,-17.83 -539.24,-29.51 -519.16,-413.79 17.12,-327.33 231.49,-376.52 536.88,-366.57l-17.72 780.36zm7687.28 916.06l-9.64 395.16c139.18,13 283.57,35.25 424.38,25.82l313.26 -77.57c796.66,-269.33 624.21,-1250.66 571.92,-2650.6l-369.22 6.14c-700.18,198.96 732.24,2252.45 -930.7,2301.05zm-436.46 -1755.35c154.19,286.62 280.94,805.39 -447.22,757.83 -260.47,-115.05 -389.23,-295.95 -378.91,-468.77 16.44,-275.57 617.77,-650.21 826.13,-289.06zm-12081.44 1992.69c277.53,-548.57 -495.89,-553.39 -260.7,15.36l260.7 -15.36zm-1692.72 -3082.12c-153.73,481.52 472.62,576.11 331.83,-72.88l-331.83 72.88zm508.19 186.19c61.48,305.49 448.33,223.09 370.86,-211.92 -152.9,-34.53 -439.93,-131.08 -370.86,211.92zm6384.98 200.56c187.13,-197.69 68.47,-408.08 -316.03,-325.68 -60.66,323.21 111.49,541.68 316.03,325.68zm-520.78 -242.36c-67.75,-246.37 11.15,-39.97 -167.87,-147.06 -220.02,125.93 -126.87,-93.17 -189.47,212.53 -69.07,337.97 41.8,127.37 89.77,228.52l202.29 -26.23c14.95,-26.24 171.33,118.15 65.28,-267.76zm-4438.84 2750.09c6.25,428.04 -42.23,4.4 106.28,215.21 466.36,-99.62 402.93,-395.58 -2.57,-446.7 -137.12,154.62 -109.04,-136.62 -103.71,231.49zm11685.06 -3078.74c-235.5,571.72 576.32,617.63 358.87,-29.94l-358.87 29.94zm-687.03 334.28c575.22,407.55 666.95,-623.9 -17.11,-306.12l17.11 306.12zm-2089.31 1626.01c3.07,326.08 9.72,387.99 134.35,553.18l352.63 -13.02 -25.32 -2431.38 -421.18 -0.33 -40.48 1891.55zm-8268.23 960.02c-3.48,327.4 -191.12,148.8 186.62,312.34 135.98,58.94 336.32,52.47 478.88,25.63 752.17,-141.83 525.91,-1191.82 514.23,-2334.85l-467.2 20.39c-32.48,1025.38 176.36,1720.29 -221.87,1885.27 -245.33,101.78 -293.4,-33.39 -490.66,91.22zm15107.2 -437.49c21.41,-821.55 -145,-1417.77 -921.27,-1731.06 -503.68,-203.3 -346.39,-108.41 -482.38,163.57 213.87,205.56 -251.88,-52.88 268.29,240.81 107.19,60.46 215.11,91.52 329.48,193.07 183.33,162.75 295.85,404.6 248.1,743.89 -1334.27,-3.28 -1013.01,-106.38 -1129.32,210.39 97.97,210.59 -237.84,193.58 793.39,175.44 297.79,-5.23 595.92,-2.46 893.71,3.89zm-3272.44 -47.64c-11.25,-496.1 103.91,-1249.92 -263.16,-1568.33 -352.52,-305.69 -1070.48,-218.59 -1401.59,82.3 -618.24,561.77 -333.15,1941.55 1664.75,1486.03zm-14017.55 -1117.94c123.39,269.22 77.17,450.71 62.62,787.85 -247.49,8.5 -341.04,-39.95 -502.24,-128.19 -33.31,-435.03 14.86,-608.52 439.62,-659.66zm519.97 -555.83c-1180.64,10.64 -1852.08,787.95 -1303.83,1458.96 334.19,409.1 2170.5,387.59 2749.91,237.05l-4.31 -1523.25 -475.91 -5.51 -11.78 1192.93 -914.31 -29 -39.77 -1331.18zm7808.42 662.1c-27.05,202.19 -105.14,241.24 -345.97,402.24 -304.25,-185.2 -290.21,-241.04 -363.9,-605.14l674.82 -14.65c29.1,102.77 84.24,-150.97 35.05,217.55zm-1196.42 -339.09c108,592.62 349.04,699.91 403.54,1026.2l-906.92 -18.64 -4.82 -1176.25c-1058.4,2.97 -1682.99,56.78 -1414.2,1209.44l-765.6 -20.8 -29.63 -2041.57 -452.22 1.14 0.71 2449.94c1022.21,-11.48 2045.16,4.11 3066.96,-1.43 737.54,-3.91 605.14,-180.57 1312.44,-45.2 472.42,90.48 991.37,47.75 1477.82,38.73l-19.35 -2440.72 -464.63 -4.8 -7.59 2051.5 -932.75 -12.51c93.96,-372.81 460.01,-528.68 406.43,-1135.85 -814.2,-311.94 -1000.8,-205.89 -1670.19,120.82z"/>
  <path class="fil1" d="M18905.99 13437.68l646.69 -77.41 -4.73 4349.48c-743.24,142.85 -1941.18,171.99 -2570.06,539.81l2.53 1828.36 4475.72 -831.43 -10.33 -8114.63c-498.03,-40.03 -4096.13,584.24 -4394.24,805.48 -171.11,188.37 -77.86,5238.65 -82.15,5458.14 525.52,78.95 1374.65,-166.16 1909.41,-267.54l27.16 -3690.26z"/>
  <path class="fil1" d="M14306.77 17880.64l-2577.86 -424.02 6.04 1894.55 4471.22 807.9c72.13,-4334.86 6.6,-9129.14 4.51,-13547.25l-1904.68 -424.24 0.77 11693.06z"/>
  <polygon class="fil2" points="13633.25,5328.77 16182.86,5758.18 16168.12,3876.27 11736.05,3101.58 11732.53,16768.14 13632.81,17074.94 "/>
  <path class="fil1" d="M8429.79 17824.55l-9.46 -3587.44 668.25 -95.44 -70.16 3570.72 -588.63 112.16zm2567.2 1464.71l-9.9 -7405.36 -4467.58 803.39 0.99 7387.55 4476.49 -785.58z"/>
  <polygon class="fil2" points="6493.23,9964.82 6483.88,11859.71 10955.42,11070.61 10964.11,9194.64 "/>
 </g>
</svg>
