<?xml version="1.0" encoding="UTF-8"?>
<!DOCTYPE svg PUBLIC "-//W3C//DTD SVG 1.1//EN" "http://www.w3.org/Graphics/SVG/1.1/DTD/svg11.dtd">
<!-- Creator: CorelDRAW -->
<svg xmlns="http://www.w3.org/2000/svg" xml:space="preserve" width="226.752mm" height="100.529mm" version="1.1" style="shape-rendering:geometricPrecision; text-rendering:geometricPrecision; image-rendering:optimizeQuality; fill-rule:evenodd; clip-rule:evenodd"
viewBox="0 0 22675.18 10052.95"
 xmlns:xlink="http://www.w3.org/1999/xlink"
 xmlns:xodm="http://www.corel.com/coreldraw/odm/2003">
 <defs>
  <style type="text/css">
   <![CDATA[
    .fil1 {fill:#213552}
    .fil0 {fill:#CA7D4E}
   ]]>
  </style>
 </defs>
 <g id="Layer_x0020_1">
  <metadata id="CorelCorpID_0Corel-Layer"/>
  <g id="_2827505752128">
   <path class="fil0" d="M4.63 6013.98c50.6,-13.51 547.76,-531.95 582.45,-566.64l1449.53 -1449.53c50.02,-50.02 92.31,-92.31 142.32,-142.32 43.28,-43.28 114.19,-104.29 144.96,-150.23l2031.98 2026.72c51.77,51.77 95.82,95.81 147.59,147.59 27.46,27.46 139.68,120.92 139.68,155.49l0 1359.93 -4606.88 0c-24.3,0 -31.63,7.34 -31.63,31.63l0 1939.74 6609.88 0 0 -4153.58c0,-35.05 -393,-408.81 -424.32,-440.13l-1296.67 -1296.68c-303.6,-304.6 -723.94,-507.1 -1161.27,-567.63 -222.47,-30.8 -1405.11,-14.82 -1724.63,-14.82l2880.61 -2885.9c-289.12,-3.33 -1055.68,-26.71 -1330.17,29.75 -367.58,75.62 -609.29,254.63 -857.3,502.64l-2630.25 2630.24c-40.22,39.98 -65.38,42.41 -66.76,112.45 -8.91,449.12 0.88,910.25 0.88,1360.81 0,456.82 0,913.65 0,1370.47z"/>
   <path class="fil1" d="M13308.73 1133l0 3384 2329.8 0c345.82,0 586.97,-93.25 826.77,-280.13 100.62,-78.41 134.95,-175.66 174.72,-204.81 28.72,107.57 231.97,280.3 351.35,344.44 140.58,75.54 354.41,140.5 565.82,140.5l5112.9 0c0,-609.03 65.82,-1204.79 -276.05,-1705.86 -257.46,-377.34 -734.79,-647.21 -1210.13,-645.27l-1866.2 0.25 501.51 -668.66c87.32,-116.49 165.69,-220.86 253.01,-337.35l189.82 -252.94c13.42,-18.62 16.97,-24.72 30.34,-43.46 20.71,-29.05 17.3,-11.34 26.81,-46.98 -193.44,0 -586.24,-23.79 -742.73,37.38 -147.7,57.74 -216.59,160.26 -298.84,280.97 -29.25,42.93 -55.35,73.39 -84.34,115.96 -54.03,79.37 -108.21,148.42 -162.3,227.75 -54.08,79.3 -106.82,147.26 -162.36,227.72 -54.96,79.62 -108.3,150.87 -162.44,227.61l-168.59 232c77.4,146.28 200.67,315.72 284.63,474.39 699.3,0 1398.58,0 2097.87,0 396.55,0 696.05,48.73 911.31,406.45 187.4,311.46 163.99,644.95 163.99,995.64l-4332.79 0c-500.24,0 -748.49,-213.15 -748.49,-695.76l0 -1423.19 -357.28 85.48c-111.24,37.33 -186.24,102.88 -246.01,196.77 -70.69,111.05 -60.87,208.4 -60.87,381.9 0,151.11 0,302.21 0,453.31 0,332.23 8.18,559.67 -132.57,763.5 -139.46,201.97 -410.43,237.99 -658.08,237.99l-1486.43 0 0 -3468.33c-46.45,10.82 -68.27,23.18 -105.43,42.16 -36.71,18.77 -69,29.8 -109.07,49.06 -165.95,79.79 -449.65,180.25 -449.65,467.51zm-1317.77 8676.12c0,69.56 23.53,123.97 56.7,164.69 104.2,127.94 407.16,121.52 407.16,-175.23 0,-235.09 -350.93,-281.15 -438.84,-80.41 -8.71,19.91 -25.02,69.64 -25.02,90.95zm-358.42 242.47c345.77,0 312.66,-463.85 10.54,-463.85 -127.15,0 -219.84,108.05 -229.68,224.03 -10.23,120.61 103.51,239.82 219.14,239.82zm-1064.75 -2941.24c195.21,0 322.92,-236.57 176.48,-397.86 -76.1,-83.79 -224.54,-106.46 -329.93,-8.59 -94.13,87.4 -100.32,231.31 -10.54,327.97 13.73,14.79 47.26,41.21 65.74,50.24 12.7,6.2 87.06,28.24 98.25,28.24zm-853.91 -253.01c0,344.13 463.86,312.43 463.86,21.09 0,-325.94 -463.86,-295.59 -463.86,-21.09zm6061.69 -1644.55c0,127.86 12.97,187.69 113.12,287.47 228.15,227.28 614.29,49.68 614.29,-245.31 0,-362.2 -381.76,-493.16 -614.25,-287.44 -53.38,47.22 -113.16,147.65 -113.16,245.28zm-917.16 10.54c0,425 539.76,516.38 703.09,154.89 127.02,-281.1 -165.26,-611.35 -479.02,-479.02 -114.98,48.49 -224.07,166.06 -224.07,324.13zm-4543.63 -2877.99c0,410.61 526.07,519.88 699.55,161.91 46.1,-95.15 49.33,-198.69 3.48,-295.67 -180.1,-380.89 -703.03,-226.14 -703.03,133.76zm11912.54 4670.13l0 2361.43 421.69 0 0 -2719.86c-42.39,3.53 -243.81,98.89 -272.42,117.65 -65.83,43.2 -149.27,136.01 -149.27,240.78zm-11501.4 -1939.74c-433.49,0 -799.22,-122.48 -998.21,-456.59 -63.09,-105.92 -108,-220.67 -131.46,-364.02 -95.74,-584.96 128.33,-989.7 -305.63,-1149.18 -61.54,-22.62 -119.77,-42.09 -178.98,-63.48 -42.84,-15.49 -146.82,-61.14 -188.42,-64.6 0,357.75 -21.49,971.35 25.41,1292.35 78.27,535.47 304.8,863.4 761.66,1093.75 410.4,206.93 1204.3,245.88 1676.13,108.72 472.87,-137.47 816.09,-403.41 997.78,-868.17 133.13,-340.57 133.87,-635.68 133.87,-1099.54 0,-414.66 0,-829.32 0,-1243.97l-209.61 75.02c-60.51,20.16 -147.25,49.78 -205.29,79.35 -336.91,171.66 -249.25,524.24 -249.25,899.84 0,302.8 17.06,784.03 -77.63,1071.46 -94.24,286.11 -260.24,508.04 -550.73,608.89 -143.64,49.87 -311.23,80.17 -499.64,80.17zm8222.82 3394.55c0,-221.58 -1.91,-403.35 145.04,-582.36 183.34,-223.33 495.79,-259.38 719.03,-113.04 71.5,46.87 114.73,104.57 158.11,179.25 128.27,220.87 95.27,808.81 95.27,1117.05l-527.09 0c-354.16,0 -590.36,-254.36 -590.36,-600.9zm-2024.08 -1391.55l0 2298.17 1191.25 0c280.19,0 525.34,-123.09 621.99,-305.72 61.76,41.35 155.23,152.81 296.45,209.57 119.11,47.87 245.71,96.15 409.86,96.15l2192.76 0 0 -2719.86c-50.78,4.23 -249.83,98.83 -292.52,129.18 -82.26,58.5 -139.71,155.6 -139.71,292.51l0 1992.45 -716.87 0 0 -685.23c0,-399.26 -187.33,-683.24 -427.74,-847.84 -115.02,-78.75 -304.77,-147.97 -489.65,-153.71 -349.46,-10.83 -657.6,79.94 -879.43,374.88 -302.84,402.65 -143.06,817.64 -225.7,1060.43 -54.39,159.79 -180.29,251.47 -391.61,251.47l-716.86 0 0 -2414.14c-48.71,1.09 -250.41,99.24 -292.51,129.18 -82.27,58.5 -139.71,155.6 -139.71,292.51zm-7548.13 1275.59c0,-312.06 91.78,-561.12 370.19,-662.93 170.13,-62.22 547.51,-43.39 747.28,-43.39l0 716.87c0,265.34 -88.04,538.42 -302.25,657.08 -37.5,20.78 -70.87,36.61 -110.61,47.51 -413.04,113.32 -704.61,-268.94 -704.61,-715.14zm-453.31 -21.08c0,575.58 412.21,1085.83 1001.5,1085.83 310.72,0 513.41,-118.44 709.11,-313.48 29.58,-29.48 41.92,-57.1 71,-76.58 37.67,25.22 245.94,347.89 716.87,347.89l1454.8 0c241.92,0 434,-108.9 558.74,-295.18 31.27,22.92 207.34,347.89 611.43,347.89 280.21,0 345.74,2.4 569.42,-168.53 37.59,-28.73 79.06,-82.88 108.48,-123.44 22.24,-30.68 23.32,-47.28 49.51,-66.46 27.63,20.25 168.62,305.72 621.98,305.72l896.07 0 0 -1844.86c-37.77,3.14 -235.98,70.3 -270.81,87.62 -70.8,35.19 -150.87,118.97 -150.87,218.1l0 1233.42 -442.76 0c-294.84,0 -401.66,-198.37 -400.64,-474.36 1.08,-291.6 0.03,-583.41 0.03,-875.03 -239.48,114.92 -422.52,47.54 -421.69,400.59 0.53,224.16 21.06,609.96 -57.83,764.44 -91.93,180.03 -268.75,184.36 -458.72,184.36 -238.79,0 -400.6,-151.44 -400.6,-390.06l0 -874.99c-103.32,2.3 -294.95,86.46 -361.42,155.13 -162.11,167.47 8.68,674.26 -123.91,930.31 -119.67,231.09 -465.62,179.61 -748.09,179.61l0 -1539.14 -284.27 95.24c-73.06,40.29 -137.42,127.53 -137.42,242.1l0 1201.8 -590.35 0c-158.9,0 -285.28,-68.82 -377.26,-181.47 -75.21,-92.12 -139.53,-265.02 -139.67,-429.61 -0.3,-384.15 -10.18,-733.76 -10.18,-1117.82l-959.33 0c-162.61,0 -310.27,29.19 -429.31,76.71 -369.39,147.45 -603.81,476.87 -603.81,914.25z"/>
  </g>
 </g>
</svg>
