<?xml version="1.0" encoding="UTF-8"?>
<!DOCTYPE svg PUBLIC "-//W3C//DTD SVG 1.1//EN" "http://www.w3.org/Graphics/SVG/1.1/DTD/svg11.dtd">
<!-- Creator: CorelDRAW -->
<svg xmlns="http://www.w3.org/2000/svg" xml:space="preserve" width="279.4mm" height="279.4mm" version="1.1" style="shape-rendering:geometricPrecision; text-rendering:geometricPrecision; image-rendering:optimizeQuality; fill-rule:evenodd; clip-rule:evenodd"
viewBox="0 0 27940 27940"
 xmlns:xlink="http://www.w3.org/1999/xlink"
 xmlns:xodm="http://www.corel.com/coreldraw/odm/2003">
 <defs>
  <style type="text/css">
   <![CDATA[
    .fil0 {fill:#B38A6A;fill-rule:nonzero}
    .fil1 {fill:#3A262E;fill-rule:nonzero}
   ]]>
  </style>
 </defs>
 <g id="Layer_x0020_1">
  <metadata id="CorelCorpID_0Corel-Layer"/>
  <g id="_2827521541056">
   <g>
    <path class="fil0" d="M16068.84 15832.02l0 1375.28c0,82.42 -66.78,149.27 -149.19,149.27l-1375.29 0c-82.41,0 -149.26,-66.85 -149.26,-149.27l0 -1375.28c0,-82.42 66.85,-149.19 149.26,-149.19l1375.29 0c82.41,0 149.19,66.77 149.19,149.19z"/>
    <path class="fil0" d="M18622.02 15682.76l0 0c0,924.47 -749.26,1673.74 -1673.74,1673.74l0 -1673.74 1673.74 0z"/>
    <path class="fil0" d="M10991.86 4665.35l0 2970.6c0,238.48 193.45,432.01 432.01,432.01l0.77 0c238.55,0 432.01,-193.53 432.01,-432.01l0 -1957.33c0,-82.41 66.84,-149.19 149.26,-149.19l1374.3 0c82.63,0 149.47,66.78 149.47,149.19l0 1957.33c0,238.48 193.46,432.01 432.01,432.01l1.26 0c238.77,0 432.01,-193.53 432.01,-432.01l0 -1957.33c0,-82.41 67.06,-149.19 149.47,-149.19l1375.07 0c82.42,0 149.48,66.78 149.48,149.19l0 1957.33c0,238.48 193.24,432.01 432.01,432.01 238.55,0 432.07,-193.53 432.07,-432.01l0 -1957.33c0,-82.41 66.78,-149.19 149.2,-149.19l1375.07 0c82.63,0 149.47,66.78 149.47,149.19l0 3913.6c0,82.63 -66.84,149.47 -149.47,149.47l-7465.47 0 0 5508.92c0,238.55 193.45,432.01 432.01,432.01l0.77 0c238.55,0 432.01,-193.46 432.01,-432.01l0 -1956.55c0,-82.42 66.84,-149.27 149.26,-149.27l1374.3 0c82.63,0 149.47,66.85 149.47,149.27l0 3913.1c0,82.42 -66.84,149.48 -149.47,149.48l-2388.35 0c-924.48,0 -1673.74,-749.55 -1673.74,-1674.02l0 -11017.27c0,-924.48 749.26,-1673.74 1673.74,-1673.74l5941.2 0c924.2,0 1673.74,749.26 1673.74,1673.74l-7614.94 0z"/>
    <path class="fil0" d="M18606.66 10755.67l0 3913.67c0,82.35 -66.77,149.19 -149.19,149.19l-3913.11 0c-82.41,0 -149.26,-66.84 -149.26,-149.19l0 -3913.67c0,-82.34 66.85,-149.19 149.26,-149.19l1375 0c82.7,0 149.48,66.85 149.48,149.19l0 1957.33c0,238.55 193.52,431.79 432.08,431.79 238.55,0 432,-193.24 432,-431.79l0 -1957.33c0,-82.34 66.85,-149.19 149.27,-149.19l1375.28 0c82.42,0 149.19,66.85 149.19,149.19z"/>
    <path class="fil0" d="M13530.38 10755.67l0 1374.58c0,82.42 -66.84,149.2 -149.26,149.2l-1375.28 0c-82.42,0 -149.19,-66.78 -149.19,-149.2l0 -1374.58c0,-82.34 66.77,-149.19 149.19,-149.19l1375.28 0c82.42,0 149.26,66.85 149.26,149.19z"/>
   </g>
   <path class="fil1" d="M5515.83 19225.35l507.99 0 0 -507.92 -507.99 0 0 507.92zm-725.96 0l508.16 0 0 -507.92 -508.16 0 0 507.92zm550.54 495.97c221.63,-96.83 468.12,-144.22 739.05,-142.79l0 1485.46 382.11 0 0 459.69 -899.95 0 0 -1313.62c-362.86,183.85 -623.28,517.67 -781.43,1001.56l-65.15 312.06 -508.17 0c16.02,-538.53 211.29,-1012.92 585.57,-1422.4 143.57,-156.48 326.16,-283.19 547.97,-379.96z"/>
   <path class="fil1" d="M6986.77 21777.76l508.16 0 0 508.17 -508.16 0 0 -508.17zm-725.73 0l507.93 0 0 508.17 -507.93 0 0 -508.17zm771.69 -2189.49l493.4 0 0 1475.72 0 459.69 -1456.35 0 0 -459.69 962.95 0 0 -1475.72z"/>
   <path class="fil1" d="M8583.46 19585.88l0 1620.84c1.5,32.28 2.33,63.89 2.33,94.5 0,630.45 -271.59,945.85 -815.2,945.85l-65.33 0 0 -493.57c266.1,-1.5 398.31,-186.19 396.82,-553.95l0 -1613.67 481.38 0z"/>
   <polygon class="fil1" points="9401.11,21063.99 9855.96,21063.99 9855.96,21523.68 8907.53,21523.68 8907.53,18620.66 9401.11,18620.66 "/>
   <path class="fil1" d="M10857.64 18717.43l507.99 0 0 507.92 -507.99 0 0 -507.92zm-469.55 1688.49c66.23,292.04 244.4,511.34 534.7,658.07l0 -957.87 -57.97 0c-300.05,-24.27 -459.04,75.67 -476.73,299.8zm-207.94 -1688.49l508.17 0 0 507.92 -508.17 0 0 -507.92zm1763.63 2806.25l-2532.98 0 0 -459.69 740.31 0c-266.1,-264.36 -347.51,-581.32 -244.4,-950.7 127.37,-353.18 411.99,-528.18 854.17,-525.02l674.92 0 0 1475.72 507.98 0 0 459.69z"/>
   <path class="fil1" d="M12938.17 20115.68c-83.91,-74.17 -233.82,-99.93 -449.94,-77.34 159.64,153.07 281.51,380.55 365.19,682.33 148.47,-227.54 176.74,-429.14 84.75,-604.99zm-808.15 -575.82l1035.7 36.28c203.03,61.32 336.08,206.39 399.14,435.42 1.49,225.99 -35.2,438.77 -110.04,638.88 -75.07,199.87 -144.88,337.76 -209.43,413.67l711.44 0 0 459.69 -1059.72 0c-40.52,0 -91.98,-45.13 -154.98,-135.62 -64.31,90.49 -116.02,135.62 -154.81,135.62l-1016.08 0 0 -459.69 832.23 0c-35.44,-314.57 -214.45,-602.42 -537.03,-863.85l263.58 -660.4z"/>
   <polygon class="fil1" points="14082.47,18620.54 14583.22,18620.54 14583.22,21523.8 13663.9,21523.8 13663.9,21063.93 14082.47,21063.93 "/>
   <polygon class="fil1" points="15360.05,21523.68 14866.41,21523.68 14866.41,18620.42 15360.05,18620.42 "/>
   <path class="fil1" d="M17138.2 18717.43l508.16 0 0 507.92 -508.16 0 0 -507.92zm1410.39 870.84l0 1475.72 447.62 0 0 459.69 -449.95 0c-40.47,262.93 -127.55,453.35 -261.26,570.98 -90.43,103.1 -243.74,154.99 -459.87,154.99 -28.86,0 -59.65,-1.02 -91.92,-2.52l-662.91 0c-229.04,-1.67 -405.48,-82.24 -529.68,-242.06 -135.56,-153.07 -203.28,-420.01 -203.28,-800.62l0 -890.45 505.66 0 0 1081.47c6.51,236.99 125.04,357.19 355.69,360.6l474.21 0c262.75,4.84 385.46,-156.48 367.53,-483.96l0 -1683.84 508.16 0z"/>
   <path class="fil1" d="M19494.51 21777.76l507.92 0 0 508.17 -507.92 0 0 -508.17zm-725.79 0l508.16 0 0 508.17 -508.16 0 0 -508.17zm662.91 -2189.49l493.4 0 0 1475.72 333.99 0 0 459.69 -1621.02 0 0 -459.69 793.63 0 0 -1475.72z"/>
   <polygon class="fil1" points="23733.2,19588.27 23733.2,21523.68 19937.4,21523.68 19937.4,21064.05 20856.72,21064.05 20856.72,20314 21362.31,20314 21362.31,21064.05 22037.3,21064.05 22037.3,19951.14 22547.73,19951.14 22547.73,21064.05 23222.71,21064.05 23222.71,19588.27 "/>
   <path class="fil1" d="M5192.48 23477.32l-176.08 254.5c-72.09,-43.22 -157.08,-85 -264.19,-85 -86.24,0 -183.43,49.14 -183.43,142.38 0,90.67 164.01,142.07 247.33,169.09 256.59,68.73 469.37,226.22 469.37,487.72l0 0.6 0 0.83c0,253.49 -209.37,500.99 -543.78,500.99 -221.21,0 -390.96,-81.58 -545.52,-198.61l160.9 -272.43c107.52,79.91 233.64,150.14 380.61,150.14 107.29,0 226.83,-52.48 226.83,-179.85 0,-113.86 -169.27,-166.4 -275.12,-198.61 -219.12,-59.48 -441.76,-192.34 -441.76,-459.69 0,-254.09 230.89,-455.63 504.16,-455.63 208.11,0 328.73,73.34 440.68,143.57z"/>
   <polygon class="fil1" points="6509.93,23371.05 6509.93,23685.68 5806.73,23685.68 5806.73,23996.48 6483.75,23996.48 6483.75,24285.53 5806.73,24285.53 5806.73,24596.57 6509.93,24596.57 6509.93,24910.96 5492.52,24910.96 5492.52,23371.05 "/>
   <polygon class="fil1" points="7764.44,23371.05 7764.44,23685.68 7061.24,23685.68 7061.24,23996.48 7738.32,23996.48 7738.32,24285.53 7061.24,24285.53 7061.24,24596.57 7764.44,24596.57 7764.44,24910.96 6747.09,24910.96 6747.09,23371.05 "/>
   <path class="fil1" d="M8001.66 24910.96l7.35 0 -7.35 0zm280.86 -1540.27l709.11 933.66 0 -933.66 314.15 0 0 1540.27 -280.86 0 -709.11 -933.43 0 933.43 -314.15 0 0 -1540.27 280.86 0z"/>
   <path class="fil1" d="M10359.28 24268.25l251.75 0c145.07,0 268.19,-124.62 268.19,-292.69 0,-168.07 -123.12,-292.45 -268.19,-292.45l-251.75 0 0 585.14zm251.75 -897.44c323.66,0 580.49,277.27 580.49,604.75 0,243.98 -142.13,459.69 -348.34,554.13l387.13 381.21 -416.9 0 -335.42 -330.41 -118.71 0 0 330.41 -312.29 0 0 -1540.09 564.04 0z"/>
   <polygon class="fil1" points="12440.83,23371.05 12440.83,23685.68 11737.64,23685.68 11737.64,23996.48 12414.65,23996.48 12414.65,24285.53 11737.64,24285.53 11737.64,24596.57 12440.83,24596.57 12440.83,24910.96 11423.43,24910.96 11423.43,23371.05 "/>
   <path class="fil1" d="M13245.93 24266.1l319.47 0 -159.83 -438.41 -159.64 438.41zm326.22 -895.29l561.3 1540.27 -333.16 0 -120.43 -330.41 -548.39 0 -120.62 330.41 -332.97 0 561.29 -1540.27 332.98 0z"/>
   <polygon class="fil1" points="14633.9,23370.75 14633.9,24596.45 15333.09,24596.45 15333.09,24911.08 14310.01,24911.08 14310.01,23370.75 "/>
   <polygon class="fil1" points="17093.43,23371.05 17093.43,23685.68 16390.24,23685.68 16390.24,23996.48 17067.31,23996.48 17067.31,24285.53 16390.24,24285.53 16390.24,24596.57 17093.43,24596.57 17093.43,24910.96 16076.03,24910.96 16076.03,23371.05 "/>
   <path class="fil1" d="M18267.31 23477.32l-176.08 254.5c-72.08,-43.22 -157.08,-85 -264.18,-85 -86.25,0 -183.44,49.14 -183.44,142.38 0,90.67 164.07,142.07 247.33,169.09 256.59,68.73 469.37,226.22 469.37,487.72l0 0.6 0 0.83c0,253.49 -209.37,500.99 -543.78,500.99 -221.21,0 -390.96,-81.58 -545.52,-198.61l160.9 -272.43c107.52,79.91 233.64,150.14 380.61,150.14 107.29,0 226.89,-52.48 226.89,-179.85 0,-113.86 -169.33,-166.4 -275.18,-198.61 -219.06,-59.48 -441.76,-192.34 -441.76,-459.69 0,-254.09 230.89,-455.63 504.16,-455.63 208.12,0 328.73,73.34 440.68,143.57z"/>
   <polygon class="fil1" points="19711.89,23370.75 19711.89,23687.29 19256.86,23687.29 19256.86,24911.08 18933.21,24911.08 18933.21,23687.29 18478.18,23687.29 18478.18,23370.75 "/>
   <path class="fil1" d="M20398.82 24266.1l319.47 0 -159.82 -438.41 -159.65 438.41zm326.23 -895.29l561.3 1540.27 -333.16 0 -120.2 -330.41 -548.62 0 -120.44 330.41 -333.16 0 561.3 -1540.27 332.98 0z"/>
   <polygon class="fil1" points="22488.56,23370.75 22488.56,23687.29 22033.53,23687.29 22033.53,24911.08 21709.88,24911.08 21709.88,23687.29 21254.85,23687.29 21254.85,23370.75 "/>
   <polygon class="fil1" points="23743.78,23371.05 23743.78,23685.68 23040.59,23685.68 23040.59,23996.48 23717.66,23996.48 23717.66,24285.53 23040.59,24285.53 23040.59,24596.57 23743.78,24596.57 23743.78,24910.96 22726.44,24910.96 22726.44,23371.05 "/>
  </g>
 </g>
</svg>
