<?xml version="1.0" encoding="UTF-8"?>
<!DOCTYPE svg PUBLIC "-//W3C//DTD SVG 1.1//EN" "http://www.w3.org/Graphics/SVG/1.1/DTD/svg11.dtd">
<!-- Creator: CorelDRAW -->
<svg xmlns="http://www.w3.org/2000/svg" xml:space="preserve" width="279.4mm" height="279.4mm" version="1.1" style="shape-rendering:geometricPrecision; text-rendering:geometricPrecision; image-rendering:optimizeQuality; fill-rule:evenodd; clip-rule:evenodd"
viewBox="0 0 27940 27940"
 xmlns:xlink="http://www.w3.org/1999/xlink"
 xmlns:xodm="http://www.corel.com/coreldraw/odm/2003">
 <defs>
  <style type="text/css">
   <![CDATA[
    .fil0 {fill:#282828}
    .fil6 {fill:#383637}
    .fil1 {fill:#3A3937}
    .fil2 {fill:#3B3A38}
    .fil7 {fill:#3D3B3A}
    .fil4 {fill:#41403E}
    .fil3 {fill:#423E3D}
    .fil5 {fill:#433F3E}
   ]]>
  </style>
 </defs>
 <g id="Layer_x0020_1">
  <metadata id="CorelCorpID_0Corel-Layer"/>
  <g id="_2827451011184">
   <path class="fil0" d="M14195.67 6551.97c306.72,289.8 608.64,604.89 910.63,909.39 305.43,307.99 598.24,598.98 905.46,904.91 101.45,101.02 162.03,101.55 160.5,299.22l0.56 6371.37c0.23,169.95 34.47,269.4 -66.74,372.3l-1364.34 1362.75c-129.03,129.06 -283.73,327.34 -555.15,358.75l9.08 -10578.69zm-2286.06 8686.02c65.97,-268.21 -7,-5831.32 19.27,-6617.69 5.04,-151.37 116.15,-207.28 291.54,-382.04 185.61,-184.92 1585.64,-1607.17 1682.23,-1670.42l6.23 10546.62c-257.07,-75.64 -395.29,-279.27 -542.22,-426.13l-1457.05 -1450.34zm-2170.54 -2200.05l237.79 -226.26c58.87,-63.57 159.95,-160.77 231.46,-237.77 263.22,-283.47 914.7,-885.45 1175.51,-1171.4 39.31,-43.11 64.92,-63.51 124.13,-121.67l142.79 -120.24 1.11 3798.94 -1793.66 -1780.56c-40.28,-37.01 -112.77,-135.18 -119.13,-141.04zm6710 2006.47l5.15 -3978.45c463.34,437.9 1021.43,1017.49 1492.35,1489.52 98.33,98.57 450.96,420.02 496.57,521.55 -261.08,202.48 -1839,1884.91 -1994.07,1967.38zm-4797.79 -6578.62l0.07 2190.37c0,140.72 -349.96,435.43 -497.76,583 -184.6,184.37 -352.5,353.18 -536.28,536.73 -355.95,355.5 -707.58,735.53 -1074.96,1072.61 -93,-50.84 -1689.89,-1688.82 -1962.74,-1950.48 -229.13,-219.72 -336.63,-493.84 -172.88,-812.59 96.01,-186.88 1763.56,-1804.19 1946.95,-1987.13l4203.28 -4200.49c112.64,-112.85 147.07,-180.69 347.62,-237.48 24.49,644.57 3.32,1695.93 3.08,2391.61 -0.05,156.93 -68.24,173.25 -241.88,346.13l-1452.51 1453.06c-90.89,90.79 -561.99,521.71 -561.99,614.66zm2542.78 -4822.3c309.83,50.03 493.43,303.24 649.74,459.62l2816.53 2815.74c175.84,176.87 382.17,382.72 558.56,559.14 192.02,192.1 351.49,370.93 569.09,570.65l1129.74 1127.53c456.95,479.81 1010.05,827.47 911.45,1344.25 -52.71,276.28 -330.42,492.51 -477.88,641.08 -195.11,196.58 -373.96,374.38 -569.84,569.83 -110.21,109.95 -1036.52,1076.6 -1152.17,1117.96l-2128.1 -2122.31c-67.95,-33.68 -17.63,52.67 -52.53,-26.13l0.21 -2313.23c-88.8,-47.59 -1569.66,-1550.65 -1755.9,-1742.17 -165.25,-169.93 -290.51,-281.17 -440.88,-430.66 -96.46,-95.94 -64.28,-186.43 -63.91,-364.01 0.93,-426.07 -17.9,-1962.29 5.89,-2207.29zm-207.36 -286.05c-493.78,60.06 -613.71,351.52 -1020.98,731.5 -175.84,164.04 -275.15,278.15 -438.26,433.53l-3841.5 3846.99c-42.82,44.19 -77.93,59.82 -120.14,103.35l-655.57 663.15c-58.08,49.73 -168.55,156.83 -226.31,220.43 -303.26,333.8 -682.95,549.84 -622.37,1143.07 44.19,432.56 416.78,710.85 724.64,1018.81 298.98,299.12 583.48,583.53 882.91,882.78 589.82,589.5 1167.36,1162.95 1754.98,1754.03l2637.84 2636.95c247.59,247.35 552.99,686.72 1152.6,618.4 414.8,-47.28 697.23,-424.67 1010.4,-736.46 680.67,-677.69 5487.05,-5441.65 5703.86,-5717.35 299.91,-381.38 246.53,-913.19 -111.61,-1271.81 -150.15,-150.34 -284.52,-284.74 -435.92,-435.55 -299.51,-298.35 -582.23,-583.74 -882.88,-882.83l-4391.09 -4392.83c-222.72,-224.91 -561.2,-684.19 -1120.6,-616.16z"/>
   <path class="fil1" d="M9742.88 20972.11c-245.53,-1.12 -409.73,-61.89 -502.37,-245.41 -106,-210.02 -33.69,-451.37 132.83,-530.65 428.03,-203.83 652.79,350.77 369.54,776.06zm1596.88 -740.11c147.5,-110.75 574.1,-173.02 724.1,-27.25 177,172.03 -184.12,506.35 -291.4,544.8 -43.29,-53.04 -73.5,-67.73 -118.42,-116.5 -107.75,-117.01 -240.12,-253.57 -314.28,-401.05zm834.01 668.16c115.97,-143.5 460.16,-495.07 393.63,-821.78 -62.14,-305.13 -546.96,-354.63 -891.13,-312 -167.35,20.73 -579.47,113.72 -666.45,251.89 -183.03,290.76 -75.46,332.75 -15.35,413.82l406.35 483.17c-299.03,80.03 -820.42,68.52 -1151.31,54.58 20.33,-132.32 92.5,-251.8 106.65,-426.66 70.42,-870.82 -1121.44,-995.5 -1511.35,-389.14 -256.6,398.99 -32.99,662.73 15.4,816.57 -130.13,3.12 -261.63,1.11 -391.92,1.08 -120.28,-0.02 -244.29,21.53 -310.85,-60.21 -91.92,-112.92 -58.51,-515.85 -58.51,-684.85 0.04,-502.99 10.5,-1016.91 -1.06,-1519.67l-483.28 9.48c0.67,403.79 -45.87,2053.79 37.06,2308.47 117.47,360.78 406.86,361.53 816.66,358.88 381.74,-2.45 738.66,-9.1 1117.13,-47.13 179.23,-17.99 354.04,25.39 537.1,37.5 505,33.45 1126.58,39.97 1561.06,-160.65 102.23,-47.2 101.74,-12.33 201.64,30.85 66.94,28.92 149.07,53.52 224.25,74.4 343.22,95.37 1325.55,84.5 1668.17,61.32l0.6 -2672.64 -489.38 -0.88 -2.27 2260.21c-135.09,15.44 -706.13,11.33 -871.07,-8.71l-241.77 -57.9z"/>
   <path class="fil1" d="M20908.35 20971.69c-240.13,1.86 -485.97,30.08 -621.67,-121.8 -137.82,-154.22 -108.7,-417 18.85,-554.14 226.74,-243.8 690.71,-164.18 602.82,675.94zm1739.35 -55.79c-29.48,-38.52 -17.04,34.6 -26.34,-70.52l7.95 -982.76 -465.35 0.53c2.26,155.41 33.15,840.48 -22.07,921.82 -6.57,171.87 -107.75,187.76 -277.2,187.21 -154.39,-0.49 -311.35,2.59 -465.35,-1.92 -28.75,-234.17 17.13,-399.17 -48.92,-641.19 -49.5,-181.35 -158.89,-338.55 -277.81,-414.75 -327.03,-209.48 -802.99,-142.44 -1051.83,96.2 -230.79,221.32 -407.99,628.69 -169.07,1012.35 263.52,423.19 774.57,329.15 1013.09,367.44 -140.89,244.84 -516.6,377.69 -892.88,406.57l42.01 394.58c567.84,-4.95 1239.12,-392.92 1343.67,-807.73 211.94,-2.41 425.53,-0.76 637.6,-0.38 231.78,0.44 350.14,-9.68 481.49,-145.91 93.38,24.79 169.15,86.22 298.82,117.74 183.43,44.59 1014.77,37.58 1198.66,24.9l0.47 -2672.51 -483.14 -1.3 -4.33 2264.96c-153.85,1.57 -309.99,2.23 -463.77,0.24 -158.53,-2.05 -260.75,-50.16 -375.7,-55.57z"/>
   <path class="fil1" d="M4159.53 20763.14c-133.19,67.77 -280.6,128.21 -459.33,97.76 -150.97,-25.72 -260.99,-131.06 -229.48,-315.16 36.37,-212.6 422.07,-394.49 691.72,-408.65l-2.91 626.05zm-6.24 -1017.88c-180.18,86.82 -335.97,57.83 -720.07,273.3 -585.78,328.61 -560.19,989.57 -48.9,1176.41 303.13,110.77 535.16,60.97 799.58,-45.5 73.69,51 57.83,137.82 295.84,203.67 196.8,54.45 1191.59,33.53 1425.03,29.15l-1.59 -1527.54 -486.83 0.73 -4.31 1113.12c-174.64,11.96 -377.8,3.76 -555.56,3.76 -242.41,-0.02 -213.61,-96.37 -212.73,-334.12 1.26,-334.91 23.49,-769.83 -3.27,-1098.16l-475.1 -0.16 -12.09 205.34z"/>
   <path class="fil1" d="M17525.19 18711.2c-2.25,330.89 -22.01,2017.44 14.19,2212.65 63.2,340.7 267.18,457.73 638.9,459.52 322.58,1.57 789.66,25.99 1099.32,-4.44l-1.33 -1523.45 -480.23 -0.89 -4.61 1117.15c-1076.25,3.98 -711.9,248.95 -777.53,-2264.39l-488.71 3.85z"/>
   <polygon class="fil1" points="24459.24,21384.96 24940.52,21383 24942.71,18718.69 24459.77,18706.71 "/>
   <polygon class="fil1" points="14730.18,18708.75 14271.25,18707.49 14269.66,21375.7 14733.14,21376.04 "/>
   <path class="fil2" d="M16090.39 22146c200.25,4.29 470.44,-113.02 601.46,-206.41 142.22,-101.38 250.27,-251.87 305.12,-501.33 71.37,-324.72 43.31,-1205.2 33.76,-1582.76l-481.41 -1.08c-24.89,376.19 -3.61,829.83 -3.08,1214.24 0.89,663.52 -262.87,548.84 -513.28,676.98l57.43 400.36z"/>
   <path class="fil2" d="M6191.53 22146.49c420.72,-12.71 799.14,-243.14 905.27,-708.98 69.21,-303.73 45.72,-1218.81 33.88,-1581.37l-480.03 -1.63c-25.96,373.93 -3.53,831.29 -3.2,1214.19 0.55,645.39 -246.06,554.23 -513.86,675l57.94 402.79z"/>
   <path class="fil3" d="M7480.93 23968.48c-91.71,-812.77 804.5,-880.41 912.89,-242.1 136.46,803.49 -836.61,917.98 -912.89,242.1zm-215.81 37.41c61.74,386.16 358.27,649.54 819.8,568.95 822.05,-143.52 700.63,-1613.74 -300.44,-1440.96 -364.01,62.82 -588.94,436.71 -519.36,872.01z"/>
   <path class="fil3" d="M13314.74 23323.25c205.81,-2.38 495.05,-22.54 473.35,233.4 -18.03,213.04 -263.76,192.71 -472.18,198.72l-1.17 -432.12zm424.98 532.98c123.04,-67.71 202.43,-83.22 249.01,-222.64 43.69,-130.75 6.79,-284.06 -70.62,-362.44 -161.11,-163.21 -540.57,-132.85 -812.53,-127.68l6.45 1418.84 201.25 0.29 1.12 -630.87c270.48,-0.84 298.61,7.89 391.22,224.63 33.68,78.8 146.37,351.5 188.4,406.17l216.8 -2.45c-11.73,-61.17 -126.33,-290.74 -162.86,-364.81 -96.72,-196.14 -81.96,-217.04 -208.24,-339.04z"/>
   <path class="fil4" d="M10507.63 23365.7l279.14 674.86 -556.39 -2.47 277.25 -672.39zm-491.76 1196.46c72.26,-134.51 110.8,-339.4 173.71,-356.42l636.1 -0.08c55.34,27.71 32.95,9.25 61.81,75.28l111.37 281.9 222.53 -5.13 -593.81 -1416.16 -213.48 6.18c-53.13,74.43 -591.84,1353.3 -597.06,1415.07l198.83 -0.64z"/>
   <path class="fil3" d="M3708.62 23355.1l269.68 685.64 -555.09 -2.19 285.41 -683.45zm-499.8 1207.7c241.09,-441.34 -94.09,-358.38 841.08,-353.96l142.95 352.28 211.41 1.61c-13.42,-101.98 -357.15,-873.63 -443.5,-1082.1 -171.26,-413.4 -92.68,-338.02 -359.18,-338.38 -88.94,239.87 -578.73,1314.19 -591.51,1420.22l198.75 0.33z"/>
   <path class="fil4" d="M16033.2 23350.61l285.53 688.36 -553.86 1.93 268.33 -690.29zm-348.67 855.44l699.21 1.64 147.08 355.04 206.28 0c-7.82,-120.19 -498.08,-1201.36 -581.32,-1419.37l-219.03 1.21 -595.24 1418.07 205.59 -0.37 137.43 -356.22z"/>
   <path class="fil3" d="M22246.32 23349.37l272.82 692.14 -554.76 -7.31 281.94 -684.83zm-496.4 1212.52c209.46,-456.69 -18.52,-357.6 843.11,-352.48 147.77,420.45 120.01,353.63 353.92,352.61 -7.01,-65.16 -550.01,-1352.52 -596.31,-1418.35l-207.69 1.26 -595.07 1417.89 202.04 -0.93z"/>
   <path class="fil3" d="M11560.14 24377.8c37.04,-82.07 144.99,-219.46 199.15,-298.92l399.98 -573.06c107.58,-152.03 123.51,-128.07 119.51,-363.04l-944.39 5.17 7.78 175.04 691.08 -0.33c-36.04,87.99 -143.74,226.7 -199.49,306.69l-400.35 572.46c-80.52,118.49 -146.28,154.42 -116.92,361.21l977.25 -7.27 -0.22 -172.1 -733.38 -5.85z"/>
   <path class="fil3" d="M9101.25 23818.64l-3.09 -495.5c227.21,-1.5 486.28,3.45 484.12,252.8 -2.19,250.54 -251.28,245.02 -481.03,242.7zm-2.12 180.56c293.68,-2.63 776.36,2.69 691.04,-531.18 -59,-369.28 -526.65,-327.2 -893.47,-325.5l6.38 1421.12 194.79 -5.46 1.26 -558.98z"/>
   <polygon class="fil3" points="24361.26,23323.08 24942.56,23322.97 24941.23,23142.08 24148.59,23146.61 24153.54,24562.8 24941.52,24555.42 24940.55,24383.5 24350.81,24382.15 24357.55,23917.99 24891.31,23911.45 24891.49,23738.22 24352.15,23737.23 "/>
   <path class="fil3" d="M18770.54 24380.2c-51.42,-30.93 -27.91,-81.78 -27.71,-224.62 0.11,-78.55 -2.8,-157.89 4.38,-235.91 111.44,-29.68 401.58,-11.45 533.63,-11.74l1.99 -170.3 -533.23 -6.59 8.81 -406.9 576.48 -0.16 2.66 -182.21 -795.34 10.65 2.58 1409.63 791.89 0.19 -2.01 -179.78 -564.13 -2.26z"/>
   <polygon class="fil3" points="15113.79,23746.56 14572.82,23744.63 14566.63,23322.08 15167.62,23308.78 15165.19,23142.27 14369.5,23151.33 14373.06,24562.11 15164,24560.63 15162.29,24383.21 14573.86,24374.79 14577.19,23918.43 15114.7,23917.08 "/>
   <path class="fil3" d="M20329.51 23167.09c-819.8,-210.46 -900.57,435.83 -579.73,651.66 152.43,102.51 466.61,154.88 434.17,391.44 -14.76,107.7 -113.93,177.86 -228.2,193.15 -148.74,19.89 -254.39,-56.95 -345.25,-51.4l-15.83 179.77c956.45,234.08 865.79,-490.35 694.71,-653.41 -123,-117.23 -453.36,-205.53 -490.24,-351.5 -32.08,-127 67.05,-201.53 167.5,-218.31 147.33,-24.61 223.25,19.49 344.84,48.84l18.03 -190.24z"/>
   <polygon class="fil3" points="22863.48,23323.28 23289.75,23323.39 23294.08,24561.56 23497.13,24562.38 23498.21,23325.6 23933.58,23321.04 23936.5,23142.89 22851.26,23142.54 "/>
   <polygon class="fil3" points="20526.44,23322.37 20961.56,23329.75 20968.9,24563.61 21163.78,24557.05 21164.29,23323.41 21600.98,23323.63 21604.16,23142.21 20517.49,23145.99 "/>
   <path class="fil3" d="M6487.57 24562.93l196.41 -1.88c30.56,-308.7 -44.73,-998.43 15.2,-1237.99l426.81 -0.09 -0.83 -180.94 -1082.9 7.25 -0.79 171.59 437.91 4.09 8.19 1237.97z"/>
   <polygon class="fil5" points="16954.9,24562 17747.6,24560.94 17745.66,24382.99 17156.47,24374.55 17156.16,23140.09 16952.77,23153.3 "/>
   <polygon class="fil5" points="4622.36,24562.6 5413.72,24559.35 5412.08,24382.94 4820.53,24380.76 4819.07,23141.77 4618.27,23148 "/>
   <path class="fil6" d="M3734.21 18836.96c-302.71,121.91 -129.4,550.36 175.04,441.93 276.59,-98.54 130.42,-564.97 -175.04,-441.93z"/>
   <path class="fil6" d="M9178.99 18929.74c-314.05,104.02 -150.44,561.7 159.22,447.02 278.87,-103.29 137.71,-545.39 -159.22,-447.02z"/>
   <path class="fil6" d="M22588.28 18926.47c-311.42,102.45 -156.12,553.53 149.71,454.79 273.64,-88.36 157.16,-555.73 -149.71,-454.79z"/>
   <path class="fil6" d="M4293.17 18835.23c-288.79,113.12 -141.27,543.51 161.8,447.55 296.51,-93.92 143.15,-566.96 -161.8,-447.55z"/>
   <path class="fil6" d="M22028.72 18927.34c-312.72,108.58 -151.21,546.16 148.39,454.81 274.34,-83.66 162.06,-562.61 -148.39,-454.81z"/>
   <path class="fil6" d="M16715.47 18928.2c-309.37,106.88 -151.75,545.01 148.87,454.15 274.87,-83.09 162.02,-561.57 -148.87,-454.15z"/>
   <path class="fil6" d="M9737.58 18929.06c-314.81,112.17 -142.78,543.86 146.68,452.14 299.11,-94.78 146.24,-556.51 -146.68,-452.14z"/>
   <path class="fil7" d="M5634.1 21966.59c43.68,276.14 509.33,229.64 468.31,-88.65 -37.87,-293.97 -523.22,-258.45 -468.31,88.65z"/>
   <path class="fil7" d="M18895.64 21985.31c61.12,258.61 530.61,205.82 461.06,-128.12 -57.65,-276.93 -541.12,-210.64 -461.06,128.12z"/>
   <path class="fil7" d="M5072 21947.88c30.1,288.79 499.83,259.11 474.59,-53.61 -24.35,-301.9 -508.64,-273.19 -474.59,53.61z"/>
  </g>
 </g>
</svg>
