<?xml version="1.0" encoding="UTF-8"?>
<!DOCTYPE svg PUBLIC "-//W3C//DTD SVG 1.1//EN" "http://www.w3.org/Graphics/SVG/1.1/DTD/svg11.dtd">
<!-- Creator: CorelDRAW -->
<svg xmlns="http://www.w3.org/2000/svg" xml:space="preserve" width="279.4mm" height="279.4mm" version="1.1" style="shape-rendering:geometricPrecision; text-rendering:geometricPrecision; image-rendering:optimizeQuality; fill-rule:evenodd; clip-rule:evenodd"
viewBox="0 0 27940 27940"
 xmlns:xlink="http://www.w3.org/1999/xlink"
 xmlns:xodm="http://www.corel.com/coreldraw/odm/2003">
 <defs>
  <style type="text/css">
   <![CDATA[
    .fil0 {fill:#C9963A;fill-rule:nonzero}
    .fil1 {fill:white;fill-rule:nonzero}
   ]]>
  </style>
 </defs>
 <g id="Layer_x0020_1">
  <metadata id="CorelCorpID_0Corel-Layer"/>
  <g id="_2827502919760">
   <path class="fil0" d="M5014.24 15853.44c0,-148.67 -144.08,-264.79 -306.68,-264.79 -167.25,0 -306.7,116.12 -306.7,264.79 0,153.26 139.45,264.79 306.7,264.79 162.6,0 306.68,-111.53 306.68,-264.79zm-552.92 1022.21c-37.14,-13.96 -74.42,-18.55 -134.71,-18.55 -250.98,0 -348.55,195.14 -348.55,655.07 0,441.42 120.86,543.58 362.51,543.58l125.34 0 -4.59 -1180.1zm-246.24 -1022.21c0,-148.67 -144.08,-264.79 -306.71,-264.79 -167.22,0 -306.67,116.12 -306.67,264.79 0,153.26 139.45,264.79 306.67,264.79 162.63,0 306.71,-111.53 306.71,-264.79zm-88.35 2685.57c-492.48,0 -868.84,-367.1 -868.84,-975.74 0,-701.58 371.73,-1124.41 1115.19,-1124.41 334.48,0 631.79,60.47 789.83,158.04l0 1458.85 483.26 0 0 483.26 -1519.44 0z"/>
   <polygon class="fil0" points="6561.4,18539.09 5548.56,18539.09 5548.56,18055.83 6561.4,18055.83 "/>
   <polygon class="fil0" points="7448.94,18539.09 6436.06,18539.09 6436.06,18055.83 7448.94,18055.83 "/>
   <polygon class="fil0" points="8336.3,18539.09 7323.45,18539.09 7323.45,18055.83 8336.3,18055.83 "/>
   <path class="fil0" d="M9339.96 19412.56c-167.22,0 -302.08,-116.16 -302.08,-264.83 0,-153.41 134.86,-264.79 302.08,-264.79 167.22,0 306.67,111.38 306.67,264.79 0,148.67 -139.45,264.83 -306.67,264.83zm-1068.69 -873.58l427.54 0c604.01,0 919.9,-199.74 919.9,-734.1l0 -1356.69 -724.72 0 0 1407.79c0,102.31 -55.84,199.88 -213.88,199.88l-408.84 0 0 483.12zm264.94 873.58c-162.63,0 -297.48,-116.16 -297.48,-264.83 0,-153.41 134.85,-264.79 297.48,-264.79 167.23,0 311.27,111.38 311.27,264.79 0,148.67 -144.04,264.83 -311.27,264.83z"/>
   <path class="fil0" d="M9725.61 19370.71c78.98,-302.08 74.39,-269.42 130.08,-478.52 46.47,9.22 97.57,9.22 148.67,9.22 278.75,0 381.06,-153.26 381.06,-353.03l0 -2100.26 720.17 0 0 2090.93c0,617.97 -404.27,868.8 -947.82,868.8 -144.08,0 -306.67,-18.55 -432.16,-37.14z"/>
   <path class="fil0" d="M12903.71 18539.01l-292.75 0c-604.01,0 -920.02,-199.73 -920.02,-734.09l0 -2258.15 720.28 0 0 2309.25c0,102.16 60.29,199.73 218.32,199.73l274.17 0 0 483.26z"/>
   <polygon class="fil0" points="13818.98,18539.09 12806.13,18539.09 12806.13,18055.83 13818.98,18055.83 "/>
   <polygon class="fil0" points="14706.52,18539.09 13693.64,18539.09 13693.64,18055.83 14706.52,18055.83 "/>
   <polygon class="fil0" points="15593.87,18539.09 14581.03,18539.09 14581.03,18055.83 15593.87,18055.83 "/>
   <polygon class="fil0" points="16481.41,18539.09 15468.53,18539.09 15468.53,18055.83 16481.41,18055.83 "/>
   <path class="fil0" d="M18442.12 15797.67c0,148.67 -139.45,264.83 -302.08,264.83 -171.85,0 -306.53,-116.16 -306.53,-264.83 0,-148.67 134.68,-264.79 306.53,-264.79 162.63,0 302.08,116.12 302.08,264.79zm-534.37 1022.22c-55.69,-18.56 -116.12,-27.89 -167.22,-27.89 -171.96,0 -306.67,88.2 -306.67,302.05 0,288 237.02,366.99 473.89,376.35l0 -650.51zm-260.2 -1022.22c0,-148.67 -144.04,-264.79 -311.26,-264.79 -167.26,0 -302.08,116.12 -302.08,264.79 0,148.67 134.82,264.83 302.08,264.83 167.22,0 311.26,-116.16 311.26,-264.83zm1486.93 2741.42l-292.71 0c-348.56,0 -543.7,-88.35 -659.85,-181.33 -125.5,88.39 -334.6,181.33 -697,181.33l-1068.53 0 0 -483.26 1259.08 0c204.37,0 232.28,-92.94 232.28,-246.24 -613.34,-60.43 -1147.55,-209.1 -1147.55,-734.1 0,-492.63 497.07,-664.44 1003.51,-664.44 306.67,0 613.35,60.28 817.86,153.26l0 1273.09c0,134.82 88.2,218.43 255.46,218.43l297.45 0 0 483.26z"/>
   <path class="fil0" d="M21225.26 18055.83l0 483.26 -2165.21 0 0 -483.26 650.52 0c-74.43,-162.63 -116.16,-353.18 -116.16,-590.05 0,-701.58 413.46,-1054.76 868.8,-1054.76 255.61,0 427.46,65.05 529.77,148.67l-144.08 376.35c-46.47,-41.76 -111.53,-74.27 -213.69,-74.27 -195.14,0 -330,208.98 -330,599.27 0,376.47 139.45,594.79 330,594.79l590.05 0z"/>
   <polygon class="fil0" points="22098.8,18539.09 21085.92,18539.09 21085.92,18055.83 22098.8,18055.83 "/>
   <path class="fil0" d="M22033.71 18055.83l408.87 0c158,0 213.69,-97.57 213.69,-199.77l0 -2309.22 724.91 0 0 2258.12c0,534.25 -316.04,734.13 -920.05,734.13l-427.42 0 0 -483.26z"/>
   <polygon class="fil0" points="23961.9,15546.84 24682.07,15546.84 24682.07,18539.09 23961.9,18539.09 "/>
   <polygon class="fil0" points="20592.25,12193.99 20592.25,8217.71 22035.31,8810 22110.53,11927.63 "/>
   <polygon class="fil1" points="20946.21,9850.69 21161.1,9850.69 21161.1,8876.67 20946.21,8876.67 "/>
   <polygon class="fil1" points="21520.59,9850.69 21735.47,9850.69 21735.47,8876.67 21520.59,8876.67 "/>
   <polygon class="fil1" points="20920.68,11850.25 21135.57,11850.25 21135.57,10042.02 20920.68,10042.02 "/>
   <polygon class="fil1" points="21495.06,11850.25 21709.94,11850.25 21709.94,10042.02 21495.06,10042.02 "/>
   <path class="fil0" d="M15853.89 12418.35l34.9 -3796.66 1501.14 -403.98 0 4256.74 -1536.04 -56.1zm2441.83 -224.36l0 -3976.28 1535.9 0 0 4256.74 -1535.9 -280.46z"/>
   <polygon class="fil1" points="18672.53,11294.28 18887.42,11294.28 18887.42,9037.58 18672.53,9037.58 "/>
   <polygon class="fil1" points="19246.9,11294.28 19461.79,11294.28 19461.79,9037.58 19246.9,9037.58 "/>
   <polygon class="fil1" points="16257.16,9849.12 16472.04,9849.12 16472.04,8875.1 16257.16,8875.1 "/>
   <polygon class="fil1" points="16831.53,9849.12 17046.42,9849.12 17046.42,8875.1 16831.53,8875.1 "/>
   <polygon class="fil1" points="16231.59,11848.65 16446.51,11848.65 16446.51,10040.46 16231.59,10040.46 "/>
   <polygon class="fil1" points="16806,11848.65 17020.89,11848.65 17020.89,10040.46 16806,10040.46 "/>
   <path class="fil0" d="M8467.2 7830.34c-331.83,0 -592.03,-224.25 -592.03,-511.33 0,-287.04 260.2,-511.29 592.03,-511.29 313.91,0 583.07,224.25 583.07,511.29 0,287.08 -269.16,511.33 -583.07,511.33zm-762.42 1309.51c-304.96,0 -609.95,179.5 -609.95,583.07 0,547.13 484.34,726.63 914.9,726.63l0 -1255.84c-71.74,-35.79 -179.31,-53.86 -304.95,-53.86zm-789.41 -1309.51c-322.87,0 -582.93,-224.25 -582.93,-511.33 0,-287.04 260.06,-511.29 582.93,-511.29 323.02,0 600.98,224.25 600.98,511.29 0,287.08 -277.96,511.33 -600.98,511.33zm2394.95 3569.91c0,959.8 -735.55,1659.55 -1901.54,1659.55l-2045.1 0c-1031.58,0 -2045.1,-583.07 -2045.1,-1596.73l0 -2556.39 1399.21 0 0 2699.91c0,367.77 439.55,520.25 699.6,520.25l1946.49 0c529.21,0 645.85,-358.82 645.85,-744.51 -1139.12,-98.62 -2215.6,-681.69 -2215.6,-1695.2 0,-870.15 645.89,-1291.63 1847.83,-1291.63 636.82,0 1318.5,179.35 1668.36,304.95l0 2699.8z"/>
   <polygon class="fil0" points="10350.34,7271.38 11740.59,7271.38 11740.59,13047.97 10350.34,13047.97 "/>
   <path class="fil0" d="M14261.55 11754.36c0,233.21 170.4,385.69 475.35,385.69l439.55 0 0 932.93 -412.56 0c-179.46,0 -331.94,0 -502.34,-80.7l0 80.7c0,1192.87 -780.34,1677.32 -1829.8,1677.32 -278.11,0 -592.03,-35.94 -834.2,-71.78 152.52,-583.07 143.41,-520.25 251.13,-923.82 89.66,17.88 188.31,17.88 287.08,17.88 538.17,0 735.55,-295.99 735.55,-681.68l0 -4054.37 1390.24 0 0 2717.83z"/>
   <path class="fil0" d="M22110.08 11772.31c0,762.39 -556.09,1291.6 -1497.97,1291.6 -708.57,0 -1112.28,-170.36 -1354.46,-349.71 -215.29,179.35 -565.04,340.79 -1184.06,358.67 -627.82,-17.88 -968.72,-179.32 -1183.9,-349.71 -242.29,170.39 -645.9,349.71 -1354.46,349.71l-430.55 0 0 -932.78 807.29 0c143.55,0 260.08,-35.95 349.74,-107.61l5848.37 -260.17z"/>
   <path class="fil0" d="M23231.2 7296.39l1390.29 0 0 5776.63 -1390.29 0 0 -5776.63zm-69.12 7011.64l447.31 0c-95.85,-63.87 -127.73,-191.75 -127.73,-335.53 0,-399.39 319.48,-607.18 623.12,-607.18 167.75,0 287.56,40.05 343.55,95.85l-96 215.71c-31.88,-31.88 -71.78,-39.9 -127.73,-39.9 -143.78,0 -279.68,111.79 -279.68,335.52 0,223.7 151.84,335.53 279.68,335.53 55.95,0 87.83,0 159.72,-8.07l135.75 287.6 -1238.14 0 -119.85 -279.53z"/>
   <path class="fil0" d="M18858.97 7031c0,-251.13 -242.13,-430.59 -502.33,-430.59 -277.97,0 -493.27,179.46 -493.27,430.59 0,242.14 215.3,430.56 493.27,430.56 260.2,0 502.33,-188.42 502.33,-430.56z"/>
   <path class="fil0" d="M19468.96 6107.11c0,-251.13 -233.22,-439.56 -493.42,-439.56 -277.96,0 -493.26,188.43 -493.26,439.56 0,242.13 215.3,421.63 493.26,421.63 260.2,0 493.42,-179.5 493.42,-421.63z"/>
   <path class="fil0" d="M20150.68 7031c0,-251.13 -233.21,-430.59 -502.37,-430.59 -260.05,0 -484.31,179.46 -484.31,430.59 0,242.14 224.26,430.56 484.31,430.56 269.16,0 502.37,-188.42 502.37,-430.56z"/>
   <path class="fil0" d="M3454.68 21789.97l0 -1585.28c0,-25.42 13.17,-38.18 39.37,-38.18l303.39 0c24.49,0 36.73,12.76 36.73,38.18l0 1587.78c0,23.7 -12.24,35.57 -36.73,35.57l-307.23 0c-23.7,0 -35.53,-11.87 -35.53,-35.57l0 -2.5z"/>
   <path class="fil0" d="M4326.65 20646.37l0 1.2c86.26,-60.06 208.58,-90.07 366.88,-90.07 153.93,0 302.86,37.25 446.79,111.64 20.27,7.65 26.99,19.11 20.27,34.38l-86.37 213.17c-8.44,18.7 -21.99,23.33 -40.58,13.96 -65.95,-29.6 -127.58,-51.33 -184.61,-65.29 -57.15,-13.96 -111.53,-20.94 -163.15,-20.94 -115.08,0 -172.64,26.58 -172.64,79.92 0,13.55 3.96,25.16 12.14,34.9 8.02,9.74 19.63,19.22 34.9,28.55 15.11,7.66 40.94,17.81 77.41,30.42 36.36,12.66 83.76,28.86 142.1,48.34 66.89,19.37 124.41,40.31 172.6,62.67 48.22,22.51 87.19,44.79 116.83,66.78 88.87,68.45 133.25,158.15 133.25,269.01 0,131.16 -43.19,228.73 -129.45,292.6 -86.37,63.86 -215.82,95.85 -388.45,95.85 -99.81,0 -192.53,-10.79 -277.97,-32.4 -85.47,-21.57 -163.3,-54.76 -233.47,-99.66 -8.55,-6.72 -13.44,-12.91 -14.63,-18.33 -1.31,-5.52 0.15,-12.09 4.48,-19.74l81.14 -196.71c11.84,-21.2 26.73,-26.61 44.5,-16.46 67.67,32.92 136.16,57.67 205.55,74.24 69.39,16.46 139.19,24.78 209.47,24.78 114.19,0 171.33,-30.57 171.33,-91.41 0,-29.6 -14.74,-52.93 -44.38,-69.91l-144.71 -53.19c-88.09,-24.63 -161.81,-49.12 -221.46,-73.75 -59.68,-24.49 -106.94,-48.6 -141.58,-72.31 -91.37,-66.73 -137.06,-159.45 -137.06,-277.96 0,-124.41 47,-218.7 140.87,-283.08l0 -1.2z"/>
   <path class="fil0" d="M5852.32 20585.42l236.12 1.3c355.39,0 533.02,165.81 533.02,497.49l0 708.3c0,23.7 -9.22,35.57 -27.92,35.57l-281.77 0c-21.09,0 -31.73,-11.87 -31.73,-35.57l0 -637.2c0,-53.3 -4.63,-98.35 -13.96,-135.08 -9.22,-36.88 -24.11,-65.43 -44.38,-85.74 -31.36,-33.82 -87.2,-50.8 -167.52,-50.8l-201.86 0 0 908.82c0,23.7 -11.46,35.57 -34.23,35.57l-275.47 0c-9.33,0 -17.13,-2.76 -23.44,-8.29 -6.45,-5.56 -9.59,-14.63 -9.59,-27.28l0 -1557.36c0,-18.7 8.03,-30.94 24.22,-36.84l284.28 -135.79c11.87,-4.18 20.42,-3.66 25.94,1.86 5.53,5.53 8.29,17.1 8.29,34.9l0 487.44 0 -1.3z"/>
   <path class="fil0" d="M7174.93 20585.42l171.29 1.3c255.61,0 406.26,22.81 451.95,68.5 13.54,14.48 17.76,30.53 12.61,48.19l-55.8 234.93c-5,24.48 -22.02,28.7 -50.73,12.61l-116.79 -26.57 -175.13 -16.61 -85.07 0 0 884.74c0,23.7 -11.46,35.57 -34.34,35.57l-275.36 0c-9.33,0 -17.13,-2.76 -23.55,-8.29 -6.34,-5.56 -9.48,-14.63 -9.48,-27.28l0 -995.08c0,-140.5 63.46,-210.71 190.4,-210.71l0 -1.3z"/>
   <path class="fil0" d="M8844.01 21556.46l0 -259.01c-60.02,-30.42 -136.66,-45.57 -229.78,-45.57 -130.23,0 -195.41,51.99 -195.41,156.02 0,101.53 70.59,152.36 212.02,152.36l213.17 0 0 -3.8zm-641.01 -883.44c61,-39.75 128.93,-69.01 203.73,-87.56 74.91,-18.56 157.22,-27.92 246.88,-27.92 157.36,0 281.81,37.66 373.18,112.98 95.59,77.83 143.41,183.94 143.41,318.54l0 634.66c0,65.21 -17.81,115.49 -53.34,151.06 -34.64,35.53 -79.54,53.34 -134.45,53.34l-388.45 0c-77.04,0 -145.39,-7.66 -205.03,-22.92 -59.65,-15.16 -112.32,-37.66 -158.01,-67.3 -103.24,-71.11 -154.86,-177.64 -154.86,-319.85 0,-132.84 50.84,-236.87 152.36,-312.19 92.16,-68.61 210.67,-102.84 355.42,-102.84 57.52,0 108.21,3.14 152.33,9.48 43.97,6.42 79.95,17.25 107.84,32.36l0 -56.99c0,-44.91 -15.64,-79.66 -47,-104.18 -37.14,-32.1 -84.91,-48.19 -143.4,-48.19 -65.96,0 -125.5,5.94 -178.27,17.77 -52.97,11.87 -100.9,28.7 -144.08,50.73 -19.49,11.83 -34.75,7.24 -45.69,-13.96l-90.18 -171.33c-6.72,-11.83 -9.22,-21.2 -7.54,-27.92 1.61,-6.72 6.72,-12.77 15.15,-17.77z"/>
   <path class="fil0" d="M10152.66 20862.12l-178.94 0c-160.02,0 -239.93,118.92 -239.93,356.72 0,52.41 5.15,98.36 15.26,137.59 10.15,39.37 24.9,74.27 44.38,104.84 18.55,26.99 40.84,47.11 66.63,60.29 25.83,13.02 54.79,19.63 86.89,19.63 77.05,0 145.65,-34.23 205.71,-102.83l0 -576.24zm-761.64 356.72l0 5c0,-197.12 48.34,-351.57 144.71,-463.25 50.84,-57.52 111.27,-101.12 181.59,-130.75 70.18,-29.64 151.44,-44.38 243.59,-44.38l340.27 0c128.51,0 192.9,66.36 192.9,199.24l0 1320.08c0,13.55 -5.9,24.48 -17.77,33.03l-293.23 130.64c-20.31,10.12 -30.42,0.9 -30.42,-27.92l0 -488.67c-77.83,67.71 -165.39,101.53 -262.7,101.53 -141.43,0 -257.7,-56.22 -349.08,-168.79 -99.81,-116.68 -149.86,-270.36 -149.86,-460.76l0 -5z"/>
   <path class="fil0" d="M12224.11 20898.92l0 2.5c146.43,0 219.66,-66.37 219.66,-199.21 0,-115.9 -73.23,-173.83 -219.66,-173.83l-385.8 0 0 373.04 385.8 0 0 -2.5zm7.65 -728.57c169.2,0 306.67,42.78 412.53,128.25 120.11,97.31 180.13,229.26 180.13,395.96 0,245.46 -105.33,409.13 -316,491.29l388.45 596.5c13.55,30.42 6.31,45.69 -21.61,45.69l-350.27 0c-22.09,0 -37.25,-5.93 -45.79,-17.77l-368.04 -567.39 -272.85 0 0 549.63c0,23.7 -11.46,35.53 -34.38,35.53l-308.39 0c-21.98,0 -33.03,-11.83 -33.03,-35.53l0 -1406.34c0,-143.93 67.26,-215.82 201.86,-215.82l567.39 0z"/>
   <path class="fil0" d="M13950.33 21080.47c-16.98,-157.36 -92.68,-236.12 -227.13,-236.12 -30.53,0 -57.67,5.93 -81.26,17.77 -23.7,11.87 -45.28,29.26 -64.76,52.03 -17.8,21.98 -31.76,46.73 -41.88,74.28 -10.15,27.51 -16.09,58.19 -17.77,92.04l432.8 0zm-437.95 234.79l0 2.61c10.27,148.93 97.31,223.32 261.51,223.32 83.76,0 151.43,-23.29 203.05,-69.76l40.69 -1.35 190.4 162.52c16.87,14.33 17.8,28.29 2.5,41.84 -113.36,119.34 -258.86,178.98 -436.64,178.98 -184.47,0 -331.68,-58.34 -441.64,-175.13 -53.34,-59.27 -93.77,-127.99 -121.28,-206.34 -27.51,-78.24 -41.2,-166.06 -41.2,-263.37 0,-94.66 13.69,-181.18 41.2,-259.53 27.51,-78.24 67.94,-147.89 121.28,-208.84 109.18,-121.8 244.93,-182.79 407.41,-182.79 169.2,0 302.45,67.82 399.76,203.21 49.91,66.88 85.85,141.95 107.99,225.3 21.98,83.35 30.83,176.18 26.61,278.6 -1.72,35.42 -18.18,53.34 -49.53,53.34l-712.11 0 0 -2.61z"/>
   <path class="fil0" d="M15253.91 21556.46l0 -259.01c-60.06,-30.42 -136.69,-45.57 -229.78,-45.57 -130.23,0 -195.44,51.99 -195.44,156.02 0,101.53 70.58,152.36 212.01,152.36l213.21 0 0 -3.8zm-641.04 -883.44c60.99,-39.75 128.92,-69.01 203.72,-87.56 74.92,-18.56 157.22,-27.92 246.88,-27.92 157.37,0 281.81,37.66 373.18,112.98 95.6,77.83 143.41,183.94 143.41,318.54l0 634.66c0,65.21 -17.77,115.49 -53.34,151.06 -34.64,35.53 -79.54,53.34 -134.45,53.34l-388.45 0c-77,0 -145.35,-7.66 -204.99,-22.92 -59.65,-15.16 -112.36,-37.66 -158.04,-67.3 -103.21,-71.11 -154.83,-177.64 -154.83,-319.85 0,-132.84 50.8,-236.87 152.33,-312.19 92.19,-68.61 210.7,-102.84 355.42,-102.84 57.52,0 108.24,3.14 152.32,9.48 44.01,6.42 79.96,17.25 107.88,32.36l0 -56.99c0,-44.91 -15.68,-79.66 -47.03,-104.18 -37.14,-32.1 -84.92,-48.19 -143.41,-48.19 -65.96,0 -125.45,5.94 -178.27,17.77 -52.93,11.87 -100.86,28.7 -144.08,50.73 -19.48,11.83 -34.75,7.24 -45.69,-13.96l-90.18 -171.33c-6.72,-11.83 -9.22,-21.2 -7.5,-27.92 1.57,-6.72 6.72,-12.77 15.12,-17.77z"/>
   <path class="fil0" d="M15874.56 21789.97l0 -1553.51c0,-17.81 8.03,-29.64 24.12,-35.58l283.08 -137.06c23.7,-8.58 35.57,3.66 35.57,36.73l0 1691.92c0,23.7 -9.74,35.57 -29.23,35.57l-280.46 0c-9.37,0 -17.25,-2.76 -23.59,-8.29 -6.31,-5.41 -9.49,-14.52 -9.49,-27.28l0 -2.5z"/>
   <path class="fil0" d="M18350.93 20165.28l0 1.34c24.48,0 36.88,13.55 36.88,40.54l0 305.88c0,22.92 -12.4,34.27 -36.88,34.27l-776.76 0 0 205.66 522.87 0c25.41,0 38.07,13.18 38.07,39.38l0 298.24c0,27.92 -13.96,41.88 -41.88,41.88l-519.06 0 0 317.35 795.83 0c18.59,0 27.92,11.45 27.92,34.22l0 308.54c0,23.7 -9.33,35.42 -27.92,35.42l-969.81 0c-134.56,0 -201.71,-70.58 -201.71,-211.86l0 -1232.51c0,-144.71 67.15,-217.01 201.71,-217.01l950.74 0 0 -1.34z"/>
   <path class="fil0" d="M18862.44 20646.37l0 1.2c86.27,-60.06 208.58,-90.07 366.88,-90.07 153.94,0 302.87,37.25 446.76,111.64 20.3,7.65 27.02,19.11 20.3,34.38l-86.41 213.17c-8.39,18.7 -21.98,23.33 -40.53,13.96 -65.99,-29.6 -127.62,-51.33 -184.62,-65.29 -57.14,-13.96 -111.53,-20.94 -163.15,-20.94 -115.08,0 -172.63,26.58 -172.63,79.92 0,13.55 3.95,25.16 12.13,34.9 8.02,9.74 19.6,19.22 34.9,28.55 15.12,7.66 40.95,17.81 77.41,30.42 36.36,12.66 83.76,28.86 142.07,48.34 66.88,19.37 124.44,40.31 172.63,62.67 48.19,22.51 87.19,44.79 116.79,66.78 88.91,68.45 133.29,158.15 133.29,269.01 0,131.16 -43.22,228.73 -129.44,292.6 -86.41,63.86 -215.82,95.85 -388.46,95.85 -99.81,0 -192.52,-10.79 -277.96,-32.4 -85.48,-21.57 -163.3,-54.76 -233.48,-99.66 -8.55,-6.72 -13.43,-12.91 -14.63,-18.33 -1.31,-5.52 0.15,-12.09 4.48,-19.74l81.11 -196.71c11.87,-21.2 26.72,-26.61 44.53,-16.46 67.67,32.92 136.13,57.67 205.55,74.24 69.39,16.46 139.16,24.78 209.48,24.78 114.18,0 171.33,-30.57 171.33,-91.41 0,-29.6 -14.75,-52.93 -44.39,-69.91l-144.71 -53.19c-88.09,-24.63 -161.84,-49.12 -221.49,-73.75 -59.65,-24.49 -106.9,-48.6 -141.54,-72.31 -91.38,-66.73 -137.06,-159.45 -137.06,-277.96 0,-124.41 46.99,-218.7 140.86,-283.08l0 -1.2z"/>
   <path class="fil0" d="M20158.41 20282.07l0 1.3c0,-7.61 1.42,-13.95 4.48,-19.07 2.87,-5 9.07,-9.74 18.29,-13.96l283.11 -134.6c11.84,-6.72 20.27,-7.09 25.39,-1.15 5.04,5.89 7.65,16.46 7.65,31.72l0 439.15 279.16 0c17.77,0 26.73,13.17 26.73,39.37l0 237.29c0,24.59 -9.34,36.87 -27.92,36.87l-277.97 0 0 484.83c0,99.81 40.94,149.72 123.14,149.72 26.2,0 51.73,-4.89 76.74,-14.48 24.9,-9.75 48.45,-25.27 70.47,-46.36l30.42 -7.66c9.33,6.72 12.77,16.88 10.12,30.43l-36.73 259.04c-3.44,9.18 -7.91,16.72 -13.29,22.1 -5.56,5.52 -12.54,11.72 -21.09,18.43 -29.64,20.27 -63.86,35.17 -102.68,44.39 -39.01,9.33 -82.98,13.96 -132.1,13.96 -104.03,0 -187.75,-34.64 -251.24,-104.03 -61.89,-70.18 -92.68,-160.77 -92.68,-271.66l0 -578.71 -181.48 0c-23.7,0 -35.54,-12.28 -35.54,-36.87l0 -237.29c0,-26.2 12.62,-39.37 38.04,-39.37l178.98 0 0 -302.09 0 -1.3z"/>
   <path class="fil0" d="M21846.52 21556.46l0 -259.01c-60.02,-30.42 -136.65,-45.57 -229.78,-45.57 -130.23,0 -195.4,51.99 -195.4,156.02 0,101.53 70.58,152.36 212.01,152.36l213.17 0 0 -3.8zm-641 -883.44c60.99,-39.75 128.92,-69.01 203.72,-87.56 74.92,-18.56 157.22,-27.92 246.88,-27.92 157.36,0 281.81,37.66 373.18,112.98 95.6,77.83 143.41,183.94 143.41,318.54l0 634.66c0,65.21 -17.8,115.49 -53.34,151.06 -34.64,35.53 -79.54,53.34 -134.45,53.34l-388.45 0c-77.04,0 -145.35,-7.66 -205.03,-22.92 -59.65,-15.16 -112.32,-37.66 -158,-67.3 -103.25,-71.11 -154.87,-177.64 -154.87,-319.85 0,-132.84 50.84,-236.87 152.37,-312.19 92.19,-68.61 210.7,-102.84 355.41,-102.84 57.52,0 108.21,3.14 152.33,9.48 43.97,6.42 79.96,17.25 107.84,32.36l0 -56.99c0,-44.91 -15.64,-79.66 -47,-104.18 -37.14,-32.1 -84.91,-48.19 -143.4,-48.19 -65.96,0 -125.49,5.94 -178.27,17.77 -52.97,11.87 -100.89,28.7 -144.08,50.73 -19.49,11.83 -34.75,7.24 -45.69,-13.96l-90.18 -171.33c-6.72,-11.83 -9.22,-21.2 -7.5,-27.92 1.57,-6.72 6.68,-12.77 15.12,-17.77z"/>
   <path class="fil0" d="M22571.28 20282.07l0 1.3c0,-7.61 1.45,-13.95 4.48,-19.07 2.91,-5 9.11,-9.74 18.44,-13.96l282.97 -134.6c11.87,-6.72 20.3,-7.09 25.42,-1.15 5,5.89 7.65,16.46 7.65,31.72l0 439.15 279.16 0c17.77,0 26.72,13.17 26.72,39.37l0 237.29c0,24.59 -9.36,36.87 -27.92,36.87l-277.96 0 0 484.83c0,99.81 40.94,149.72 123.1,149.72 26.2,0 51.77,-4.89 76.78,-14.48 24.89,-9.75 48.45,-25.27 70.43,-46.36l30.42 -7.66c9.37,6.72 12.77,16.88 10.16,30.43l-36.73 259.04c-3.44,9.18 -7.92,16.72 -13.33,22.1 -5.52,5.52 -12.5,11.72 -21.05,18.43 -29.64,20.27 -63.87,35.17 -102.72,44.39 -38.97,9.33 -82.94,13.96 -132.06,13.96 -104.03,0 -187.79,-34.64 -251.24,-104.03 -61.89,-70.18 -92.72,-160.77 -92.72,-271.66l0 -578.71 -181.44 0c-23.71,0 -35.54,-12.28 -35.54,-36.87l0 -237.29c0,-26.2 12.62,-39.37 38.04,-39.37l178.94 0 0 -302.09 0 -1.3z"/>
   <path class="fil0" d="M24264.5 21080.47c-16.98,-157.36 -92.68,-236.12 -227.13,-236.12 -30.57,0 -57.67,5.93 -81.26,17.77 -23.7,11.87 -45.27,29.26 -64.76,52.03 -17.8,21.98 -31.76,46.73 -41.88,74.28 -10.15,27.51 -16.08,58.19 -17.8,92.04l432.83 0zm-437.94 234.79l0 2.61c10.26,148.93 97.3,223.32 261.5,223.32 83.76,0 151.43,-23.29 203.06,-69.76l40.68 -1.35 190.4 162.52c16.87,14.33 17.77,28.29 2.5,41.84 -113.36,119.34 -258.85,178.98 -436.64,178.98 -184.46,0 -331.68,-58.34 -441.64,-175.13 -53.34,-59.27 -93.76,-127.99 -121.27,-206.34 -27.51,-78.24 -41.21,-166.06 -41.21,-263.37 0,-94.66 13.7,-181.18 41.21,-259.53 27.51,-78.24 67.93,-147.89 121.27,-208.84 109.14,-121.8 244.93,-182.79 407.41,-182.79 169.2,0 302.46,67.82 399.77,203.21 49.9,66.88 85.85,141.95 107.98,225.3 21.99,83.35 30.8,176.18 26.61,278.6 -1.71,35.42 -18.17,53.34 -49.53,53.34l-712.1 0 0 -2.61z"/>
  </g>
 </g>
</svg>
